<?xml version="1.0" encoding="UTF-8" standalone="no"?>
<svg
   xmlns:dc="http://purl.org/dc/elements/1.1/"
   xmlns:cc="http://creativecommons.org/ns#"
   xmlns:rdf="http://www.w3.org/1999/02/22-rdf-syntax-ns#"
   xmlns:svg="http://www.w3.org/2000/svg"
   xmlns="http://www.w3.org/2000/svg"
   xmlns:sodipodi="http://sodipodi.sourceforge.net/DTD/sodipodi-0.dtd"
   xmlns:inkscape="http://www.inkscape.org/namespaces/inkscape"
   id="Layer_1"
   data-name="Layer 1"
   viewBox="0 0 512 512"
   width="512"
   height="512"
   version="1.1"
   sodipodi:docname="box.svg"
   inkscape:version="1.0.2 (1.0.2+r75+1)">
  <metadata
     id="metadata1930">
    <rdf:RDF>
      <cc:Work
         rdf:about="">
        <dc:format>image/svg+xml</dc:format>
        <dc:type
           rdf:resource="http://purl.org/dc/dcmitype/StillImage" />
      </cc:Work>
    </rdf:RDF>
  </metadata>
  <defs
     id="defs1928" />
  <sodipodi:namedview
     pagecolor="#ffffff"
     bordercolor="#666666"
     borderopacity="1"
     objecttolerance="10"
     gridtolerance="10"
     guidetolerance="10"
     inkscape:pageopacity="0"
     inkscape:pageshadow="2"
     inkscape:window-width="1600"
     inkscape:window-height="863"
     id="namedview1926"
     showgrid="false"
     inkscape:zoom="1.3320312"
     inkscape:cx="111.48387"
     inkscape:cy="225.97067"
     inkscape:window-x="0"
     inkscape:window-y="0"
     inkscape:window-maximized="1"
     inkscape:current-layer="Layer_1" />
  <title
     id="title1905">Commercial delivery </title>
  <path
     d="M472.916,224H448.007a24.534,24.534,0,0,0-23.417-18H398V140.976a6.86,6.86,0,0,0-3.346-6.062L207.077,26.572a6.927,6.927,0,0,0-6.962,0L12.48,134.914A6.981,6.981,0,0,0,9,140.976V357.661a7,7,0,0,0,3.5,6.062L200.154,472.065a7,7,0,0,0,3.5.938,7.361,7.361,0,0,0,3.6-.938L306,415.108v41.174A29.642,29.642,0,0,0,335.891,486H472.916A29.807,29.807,0,0,0,503,456.282v-202.1A30.2,30.2,0,0,0,472.916,224Zm-48.077-4A10.161,10.161,0,0,1,435,230.161v.678A10.161,10.161,0,0,1,424.839,241H384.161A10.161,10.161,0,0,1,374,230.839v-.678A10.161,10.161,0,0,1,384.161,220ZM203.654,40.717l77.974,45.018L107.986,185.987,30.013,140.969ZM197,453.878,23,353.619V153.085L197,253.344Zm6.654-212.658-81.668-47.151L295.628,93.818,377.3,140.969ZM306,254.182V398.943l-95,54.935V253.344L384,153.085V206h.217A24.533,24.533,0,0,0,360.8,224H335.891A30.037,30.037,0,0,0,306,254.182Zm183,202.1A15.793,15.793,0,0,1,472.916,472H335.891A15.628,15.628,0,0,1,320,456.282v-202.1A16.022,16.022,0,0,1,335.891,238h25.182a23.944,23.944,0,0,0,23.144,17H424.59a23.942,23.942,0,0,0,23.143-17h25.183A16.186,16.186,0,0,1,489,254.182Z"
     id="path1907" />
  <path
     d="M343.949,325h7.327a7,7,0,1,0,0-14H351V292h19.307a6.739,6.739,0,0,0,6.655,4.727A7.019,7.019,0,0,0,384,289.743v-4.71A7.093,7.093,0,0,0,376.924,278H343.949A6.985,6.985,0,0,0,337,285.033v32.975A6.95,6.95,0,0,0,343.949,325Z"
     id="path1909" />
  <path
     d="M344,389h33a7,7,0,0,0,7-7V349a7,7,0,0,0-7-7H344a7,7,0,0,0-7,7v33A7,7,0,0,0,344,389Zm7-33h19v19H351Z"
     id="path1911" />
  <path
     d="M351.277,439H351V420h18.929a7.037,7.037,0,0,0,14.071.014v-6.745A7.3,7.3,0,0,0,376.924,406H343.949A7.191,7.191,0,0,0,337,413.269v32.975A6.752,6.752,0,0,0,343.949,453h7.328a7,7,0,1,0,0-14Z"
     id="path1913" />
  <path
     d="M393.041,286.592l-20.5,20.5-6.236-6.237a7,7,0,1,0-9.9,9.9l11.187,11.186a7,7,0,0,0,9.9,0l25.452-25.452a7,7,0,0,0-9.9-9.9Z"
     id="path1915" />
  <path
     d="M393.041,415.841l-20.5,20.5-6.236-6.237a7,7,0,1,0-9.9,9.9l11.187,11.186a7,7,0,0,0,9.9,0l25.452-25.452a7,7,0,0,0-9.9-9.9Z"
     id="path1917" />
  <path
     d="M464.857,295H420.891a7,7,0,0,0,0,14h43.966a7,7,0,0,0,0-14Z"
     id="path1919" />
  <path
     d="M464.857,359H420.891a7,7,0,0,0,0,14h43.966a7,7,0,0,0,0-14Z"
     id="path1921" />
  <path
     d="M464.857,423H420.891a7,7,0,0,0,0,14h43.966a7,7,0,0,0,0-14Z"
     id="path1923" />
  <path
     style="fill:#1b1734;stroke-width:0.750733"
     d="m 328.63393,484.57344 c -2.16746,-0.58865 -5.27356,-1.75017 -6.90244,-2.58117 -4.33493,-2.21151 -10.10074,-8.32924 -12.54575,-13.31149 l -2.13589,-4.35233 -0.22571,-24.58651 c -0.15147,-16.49874 -0.48455,-24.58651 -1.01255,-24.58651 -0.43275,0 -23.13469,12.89118 -50.44876,28.64706 -30.45526,17.56786 -50.41915,28.64936 -51.6198,28.65299 -2.44516,0.007 -189.327892,-107.58176 -192.29435,-110.70463 L 9.3841642,359.57749 V 249.27342 138.96936 l 1.6891498,-1.88352 c 0.929032,-1.03594 44.22216,-26.42304 96.206956,-56.415782 79.43961,-45.83286 94.88898,-54.487446 96.84457,-54.251356 2.96442,0.357882 188.51246,107.335868 191.32384,110.308028 l 2.06452,2.18259 v 33.71954 33.71954 l 16.70381,0.23929 c 16.43869,0.23549 16.76339,0.27105 20.45748,2.2406 4.84442,2.58287 9.64809,7.56792 11.63557,12.07494 l 1.57252,3.56598 h 14.52508 c 12.38071,0 15.22948,0.21984 19.29625,1.48908 8.37052,2.61243 15.98321,9.88534 19.07744,18.22592 1.41977,3.82704 1.45912,6.81767 1.45912,110.91256 0,100.04613 -0.0853,107.22275 -1.31664,110.73314 -2.58542,7.37093 -9.87362,14.8333 -17.61248,18.03338 -3.48787,1.44226 -5.74312,1.48999 -77.16472,1.63306 -61.68575,0.12356 -74.20852,-0.0255 -77.5127,-0.92291 z M 480.6123,470.30945 c 2.38457,-1.18828 4.62252,-3.06522 5.96558,-5.00326 l 2.14939,-3.10157 V 355.16096 248.1173 l -2.05444,-3.00293 c -1.12993,-1.65161 -3.29994,-3.84751 -4.82224,-4.87977 -2.70537,-1.8345 -3.1246,-1.88176 -18.59072,-2.09553 l -15.82292,-0.21871 -2.20594,4.25439 c -2.7064,5.21957 -8.02322,9.62056 -13.57093,11.23332 -3.34786,0.97325 -8.14793,1.1288 -29.02625,0.94059 l -25.01506,-0.22549 -3.78381,-1.99733 c -4.34953,-2.29596 -9.72537,-7.79695 -11.29818,-11.56121 l -1.07892,-2.58223 h -15.04187 c -12.36311,0 -15.46975,0.21619 -17.44447,1.21392 -3.40747,1.72162 -5.67925,3.95617 -7.54312,7.41952 l -1.61608,3.00293 -0.23085,103.2258 c -0.16158,72.25517 0.0137,104.36478 0.58441,107.02202 1.0004,4.65834 4.44857,9.03705 8.60213,10.92356 2.90438,1.31914 6.65308,1.38884 75.54207,1.40451 l 72.48602,0.0165 3.8162,-1.90169 z M 196.13177,252.5566 C 195.61413,252.07538 160.39413,231.6553 117.8651,207.17865 75.33607,182.702 36.570088,160.37285 31.718475,157.55834 l -8.821114,-5.11731 v 100.82 100.81999 l 86.897359,50.06514 86.89736,50.06513 0.19043,-100.38988 c 0.15118,-79.6989 -0.004,-100.5702 -0.75074,-101.26481 z m 62.8985,174.09263 47.62339,-27.54431 0.1981,-76.24454 0.19809,-76.24454 2.39158,-5.04851 c 2.98955,-6.31081 8.05865,-11.34694 14.49992,-14.40559 l 4.87976,-2.31717 16.14077,-0.24399 16.14076,-0.244 1.7744,-4.05568 c 2.99803,-6.85251 10.22582,-12.29866 17.96424,-13.53609 L 384,206.25971 v -26.85173 -26.85175 l -58.3695,33.82478 c -32.10323,18.60362 -71.03812,41.17141 -86.522,50.15063 l -28.15249,16.32585 -0.1904,100.66803 c -0.10473,55.36742 -0.003,100.66803 0.22543,100.66803 0.2287,0 21.84636,-12.39494 48.03923,-27.54432 z M 290.82695,191.4488 c 47.53339,-27.45154 86.31947,-50.22654 86.19129,-50.61109 -0.30191,-0.90572 -80.10753,-46.996068 -81.37387,-46.996068 -0.5281,0 -30.60957,17.120138 -66.84773,38.044758 -36.23815,20.92461 -75.00437,43.30584 -86.14715,49.73607 -11.14279,6.43022 -20.23633,12.02914 -20.20787,12.44205 0.0547,0.79336 80.66637,47.74784 81.48401,47.46258 0.26233,-0.0915 39.36791,-22.62676 86.90132,-50.0783 z m 141.30829,46.62193 c 2.76241,-2.76241 2.91461,-3.15906 2.91461,-7.59566 0,-4.4366 -0.1522,-4.83324 -2.91461,-7.59565 l -2.91461,-2.91461 -24.29946,0.003 c -27.24623,0.003 -27.61793,0.0705 -30.17774,5.46484 -2.43426,5.12982 -0.83992,11.45052 3.56598,14.13724 2.13631,1.30272 4.16166,1.41024 26.61176,1.41283 l 24.29946,0.003 2.91461,-2.91461 z M 195.24239,136.15518 c 47.66184,-27.51464 86.64692,-50.233704 86.6335,-50.486798 -0.0248,-0.467421 -75.14391,-43.904323 -77.41061,-44.761937 -1.70237,-0.644098 -175.122318,99.469945 -174.090889,100.501375 1.012582,1.01258 76.824639,44.74511 77.595269,44.76118 0.33814,0.007 39.61087,-22.49917 87.27273,-50.01382 z"
     id="path2494" />
  <path
     style="fill:#1b1734;stroke-width:0.750733"
     d="m 339.29553,322.33026 -1.84098,-1.98646 v -18.6011 -18.60111 l 1.94356,-2.3098 1.94357,-2.3098 h 18.90992 c 21.31724,0 21.60038,0.066 23.02784,5.36717 1.78091,6.6138 -1.2162,12.19999 -6.54555,12.19999 -2.14243,0 -3.14692,-0.51058 -4.72623,-2.40235 l -2.00557,-2.40234 h -9.51717 -9.51718 v 10.13489 c 0,9.38722 0.10322,10.1349 1.3991,10.1349 0.7695,0 2.28973,0.89064 3.37829,1.97921 2.62234,2.62233 2.67997,6.39708 0.1365,8.94055 -1.67054,1.67054 -2.44546,1.84271 -8.29391,1.84271 -6.01189,0 -6.57657,-0.13528 -8.29219,-1.98646 z"
     id="path2496" />
  <path
     style="fill:#1b1734;stroke-width:0.750733"
     d="m 362.88301,316.30204 c -4.0664,-3.99517 -7.5968,-7.90459 -7.84532,-8.68761 -1.22554,-3.86135 2.12459,-8.07191 6.42241,-8.07191 2.24885,0 3.32188,0.62943 6.39914,3.75367 2.03347,2.06451 4.03371,3.75366 4.44497,3.75366 0.41126,0 5.68567,-4.89853 11.72091,-10.88563 10.17798,-10.09677 11.17558,-10.88563 13.76622,-10.88563 3.82425,0 6.47845,2.66852 6.47845,6.51341 0,2.67189 -0.79892,3.62692 -14.47299,17.30099 -17.97594,17.97594 -16.38787,17.55056 -26.91379,7.20905 z"
     id="path2498" />
  <path
     style="fill:#1b1734;stroke-width:0.750733"
     d="m 417.59529,307.74044 c -1.9656,-1.14485 -3.66304,-4.92218 -3.14301,-6.99415 0.25015,-0.99666 1.29802,-2.60427 2.32861,-3.57246 l 1.8738,-1.76034 h 24.27786 24.27786 l 1.93732,1.82001 c 2.64156,2.48162 2.68552,6.8842 0.0946,9.47511 l -1.84271,1.84271 -24.24527,-0.0228 c -15.06685,-0.0142 -24.74263,-0.31251 -25.55907,-0.78805 z"
     id="path2500" />
  <path
     style="fill:#1b1734;stroke-width:0.750733"
     d="m 341.0394,387.72975 c -1.1251,-0.6217 -2.39196,-1.77747 -2.81525,-2.56838 -0.46593,-0.8706 -0.7696,-8.7379 -0.7696,-19.93809 v -18.50007 l 2.19445,-2.19445 2.19445,-2.19445 h 18.04002 c 11.62403,0 18.69075,0.29649 19.86969,0.83366 3.5934,1.63726 3.87147,3.28303 3.87147,22.9128 v 18.26138 l -2.0802,2.08113 -2.0802,2.08112 -18.18959,0.17786 c -15.03465,0.14701 -18.54441,-0.0182 -20.23524,-0.95251 z m 29.4474,-22.12271 v -9.75953 h -9.75953 -9.75953 v 9.75953 9.75953 h 9.75953 9.75953 z"
     id="path2502" />
  <path
     style="fill:#1b1734;stroke-width:0.750733"
     d="m 416.54861,370.58409 c -1.57548,-1.35517 -2.06884,-2.45254 -2.06884,-4.60169 0,-2.14914 0.49336,-3.24651 2.06884,-4.60168 l 2.06884,-1.77955 h 24.03095 c 15.75433,0 24.55213,0.27893 25.54416,0.80985 2.26872,1.21418 3.63123,5.00635 2.72884,7.59496 -1.5087,4.32784 -1.70107,4.35766 -28.11403,4.35766 h -24.18992 z"
     id="path2504" />
  <path
     style="fill:#1b1734;stroke-width:0.750733"
     d="m 339.649,450.49763 -2.19445,-2.19445 v -18.65903 c 0,-20.3529 0.11001,-20.92657 4.34978,-22.68275 1.51865,-0.62904 7.43731,-0.82638 19.99058,-0.66651 l 17.83319,0.2271 1.73727,2.02115 c 4.98151,5.79551 2.25809,17.87328 -4.03024,17.87328 -2.65722,0 -6.84833,-3.25693 -6.84833,-5.32187 0,-1.3389 -0.6518,-1.43473 -9.75953,-1.43473 h -9.75953 v 9.74523 9.74523 l 1.88871,0.47404 c 1.03879,0.26071 2.55902,1.3262 3.3783,2.36774 2.1692,2.7577 1.90953,5.89118 -0.70486,8.50557 -2.04316,2.04316 -2.59059,2.19445 -7.94045,2.19445 -5.34986,0 -5.89728,-0.15129 -7.94044,-2.19445 z"
     id="path2506" />
  <path
     style="fill:#1b1734;stroke-width:0.750733"
     d="m 362.3713,444.91822 c -8.47566,-8.61301 -9.03623,-9.98243 -5.70632,-13.9398 1.48839,-1.76886 2.55876,-2.3098 4.57042,-2.3098 2.15912,0 3.38327,0.72691 6.8751,4.08246 l 4.24826,4.08246 11.36181,-11.21442 c 10.48074,-10.34479 11.57514,-11.21443 14.11281,-11.21443 3.78012,0 6.43641,2.68807 6.43641,6.51341 0,2.67188 -0.79892,3.62692 -14.47299,17.30099 -18.157,18.15699 -16.53922,17.76182 -27.4255,6.69913 z"
     id="path2508" />
  <path
     style="fill:#1b1734;stroke-width:0.750733"
     d="m 418.90909,436.23271 c -1.91278,-0.80293 -3.80954,-2.96899 -4.45428,-5.08668 -0.60253,-1.97906 1.22959,-5.85868 3.2866,-6.95955 0.90185,-0.48266 10.2181,-0.77299 24.8037,-0.77299 27.93272,0 28.53993,0.15026 28.53993,7.0625 0,1.64666 -0.62703,3.02469 -1.93626,4.25532 l -1.93626,1.82001 -23.40098,0.15583 c -12.87054,0.0857 -24.07664,-0.12779 -24.90245,-0.47444 z"
     id="path2510" />
</svg>
