<?xml version="1.0" encoding="iso-8859-1"?>
<!-- Generator: Adobe Illustrator 19.0.0, SVG Export Plug-In . SVG Version: 6.00 Build 0)  -->
<svg version="1.1" id="Capa_1" xmlns="http://www.w3.org/2000/svg" xmlns:xlink="http://www.w3.org/1999/xlink" x="0px" y="0px"
	 viewBox="0 0 512.001 512.001" style="enable-background:new 0 0 512.001 512.001;" xml:space="preserve">
<g>
	<g>
		<path d="M511.976,502.136C511.977,502.09,511.982,232,511.982,232c0.002-5.523-4.475-10-9.998-10h-29.999v-46.391
			c24.191-11.542,39.999-36.192,39.999-63.466c0-9.354-1.889-18.677-5.497-27.277c3.421-6.437,5.206-13.592,5.206-20.995
			c0-24.714-20.059-44.819-44.715-44.819c-3.242,0-6.423,0.34-9.526,1.015C450.226,7.889,436.944,0,422.355,0
			c-22.496,0-40.798,18.344-40.798,40.892c0,8.978,2.852,17.46,8.047,24.421c-12.339,13.453-25.833,35.454-25.833,54.83
			c0,15.264,4.703,29.635,13.242,40.468c8.938,11.337,21.301,17.79,34.975,18.336V222H285.992v-41.13
			c3.329,0.733,6.755,1.129,10.238,1.129c25.783,0,46.76-20.982,46.76-46.773c0-16.169-8.112-30.41-20.572-38.808
			c4.792-5.78,7.656-13.212,7.656-21.321c0-17.201-13.084-31.403-29.821-33.17c0.01-0.372,0.015-0.745,0.015-1.118
			C300.268,18.307,281.966,0,259.47,0c-22.497,0-40.799,18.307-40.799,40.809c0,1.317,0.063,2.626,0.187,3.925
			c-29.065,8.786-49.863,35.955-49.863,67.137c0,4.642,0.457,9.257,1.361,13.784c-5.374,6.131-8.361,13.982-8.361,22.345
			c0,19.661,12.213,39.5,39.499,39.5c11.219,0,18.902-2.894,24.499-5.884V222H100.998v-32.077
			c26.991-5.959,39.218-36.116,39.218-66.051c0-10.415-2.305-20.646-6.713-29.973c4.522-6.532,6.952-14.266,6.952-22.398
			c0-20.649-15.922-37.648-36.131-39.358C103.684,14.31,88.98,0,70.999,0C58.416,0,47.151,7.04,41.485,17.807
			C18.405,20.65,0.479,40.384,0.479,64.226c0,9.438,2.806,18.502,8.014,26.185c-5.575,10.234-8.492,21.664-8.492,33.46
			c0,15.626,4.491,31.624,12.32,43.891c7.434,11.646,17.393,19.204,28.678,22.003V222H10.001c-5.523,0-10,4.478-10,10v270
			c0,0.045,0.006,0.089,0.006,0.134c0.093,5.322,4.704,9.88,10.024,9.866c0,0,491.922,0.001,491.944,0.001
			C512.983,512.001,511.975,502.264,511.976,502.136z M383.769,120.142c0-14.425,13.914-36.658,26.355-46.9
			c2.359-1.943,3.701-4.858,3.642-7.914c-0.059-3.056-1.512-5.917-3.945-7.767c-5.253-3.994-8.265-10.07-8.265-16.67
			c0-11.52,9.33-20.892,20.799-20.892c9.255,0,17.481,6.241,20.005,15.178c0.803,2.843,2.821,5.185,5.513,6.398
			c2.693,1.215,5.784,1.176,8.446-0.105c3.337-1.605,6.923-2.42,10.66-2.42c13.628,0,24.715,11.134,24.715,24.819
			c0,5.243-1.614,10.259-4.669,14.505c-2.206,3.068-2.496,7.119-0.746,10.469c3.786,7.25,5.705,15.089,5.705,23.299
			c0,20.739-12.755,39.363-31.907,46.857h-46.201C394.321,159,383.769,138.979,383.769,120.142z M451.986,179v43h-19.999v-43
			H451.986z M220.93,161.375c-4.765,3.011-9.692,6.125-19.436,6.125c-16.965,0-19.499-12.216-19.499-19.498
			c-0.001-8.97,11.761-12.715,9.047-21.918c-1.358-4.605-2.047-9.387-2.047-14.213c0-24.936,18.597-46.28,43.257-49.648
			c3.054-0.417,5.745-2.22,7.294-4.886c3.143-5.41-0.875-10.922-0.875-16.527c0-11.475,9.331-20.81,20.8-20.81
			c11.469,0,20.799,9.334,20.799,20.809c0,6.97-6.021,13.64,0.044,19.842c5.386,5.508,10.348,1.091,16.414,1.091
			c7.36,0,13.348,5.991,13.348,13.355c0,7.189-5.618,13.049-12.792,13.34c-6.003,0.243-10.631,6.236-9.377,12.088
			c0.016,0.073,0.046,0.209,0.064,0.282c1.039,4.362,4.854,7.499,9.334,7.676c14.403,0.567,25.686,12.314,25.686,26.743
			c0,14.762-12.004,26.773-26.76,26.773c-7.153,0-13.324-6-20.239-6h-39.788C229.797,155.77,225.093,158.745,220.93,161.375z
			 M265.992,176v46h-19.999v-46H265.992z M20,123.871c0-10.252,3.081-20.114,8.911-28.521c2.708-3.906,2.293-9.18-0.995-12.614
			c-4.797-5.01-7.439-11.583-7.439-18.509c0-14.763,12.004-26.772,26.76-26.772c0.197,0,0.393,0.009,0.588,0.016l0.241,0.008
			c4.677,0.17,8.837-2.956,10.009-7.488C59.6,24.107,64.913,20,70.999,20c7.359,0,13.347,5.99,13.348,13.353
			c0.001,6.11-4.717,10.911,0.21,16.572C89.15,55.201,95.049,52,100.965,52c10.747,0,19.49,8.748,19.49,19.5
			c0,5.313-2.104,10.282-5.924,13.991c-3.348,3.251-4.003,8.384-1.578,12.371c4.751,7.813,7.263,16.807,7.263,26.009
			c0,4.824-0.82,47.129-29.218,47.129H50.999C32.456,171,20,146.631,20,123.871z M80.998,191v31H60.999v-31H80.998z M20,242h471.984
			v20H20V242z M20,281.999h23.801L20,401.009V281.999z M106.829,491.999h-34.97l9.996-58.31c0.933-5.443-2.723-10.612-8.167-11.546
			c-5.443-0.926-10.612,2.723-11.546,8.167l-10.575,61.689H22.199l41.998-210h60.892L106.829,491.999z M202.166,491.999h-27.584
			l3.396-59.43c0.316-5.513-3.898-10.239-9.412-10.553c-5.513-0.344-10.239,3.899-10.554,9.413l-3.461,60.57h-27.647l18.26-210
			h60.654L202.166,491.999z M265.991,491.999v-60c0.001-5.522-4.476-10-9.999-10s-10,4.478-10,10v60h-23.824l3.652-210h60.343
			l3.652,210H265.991z M357.434,492L357.434,492l-3.461-60.571c-0.315-5.515-5.055-9.752-10.554-9.413
			c-5.514,0.314-9.728,5.04-9.413,10.554l3.396,59.43h-27.584l-3.652-210h60.654l18.26,210H357.434z M460.417,491.999
			l-10.575-61.689c-0.934-5.443-6.104-9.096-11.546-8.167c-5.444,0.934-9.1,6.103-8.167,11.546l9.996,58.31h-34.97l-18.26-210
			h60.892l41.999,210H460.417z M491.985,401.009l-23.801-119.01h23.801V401.009z"/>
	</g>
</g>
<g>
	<g>
		<path d="M255.992,301.999c-5.52,0-10,4.479-10,10c0.001,5.52,4.481,10,10,10c5.52,0,10-4.48,10-10
			C265.992,306.478,261.512,301.999,255.992,301.999z"/>
	</g>
</g>
<g>
	<g>
		<path d="M255.992,381.999c-5.52,0-10,4.479-10,10c0,5.52,4.48,10,10,10c5.52,0,10-4.48,10-10
			C265.992,386.479,261.512,381.999,255.992,381.999z"/>
	</g>
</g>
<g>
	<g>
		<path d="M255.992,341.999c-5.52,0-10,4.479-10,10c0.001,5.52,4.481,10,10,10c5.52,0,10-4.48,10-10
			C265.992,346.478,261.512,341.999,255.992,341.999z"/>
	</g>
</g>
<g>
	<g>
		<path d="M173.995,301.93c-5.51-0.37-10.27,3.8-10.64,9.311c-0.37,5.508,3.8,10.278,9.31,10.648c0.23,0.01,0.45,0.021,0.68,0.021
			c5.22,0,9.61-4.051,9.97-9.33C183.675,307.06,179.505,302.3,173.995,301.93z"/>
	</g>
</g>
<g>
	<g>
		<path d="M171.334,341.84c-5.51-0.36-10.27,3.81-10.64,9.32c-0.368,5.509,3.802,10.269,9.311,10.639c0.23,0.02,0.45,0.02,0.68,0.02
			c5.22,0,9.61-4.05,9.969-9.329C181.014,346.979,176.844,342.21,171.334,341.84z"/>
	</g>
</g>
<g>
	<g>
		<path d="M168.675,381.759c-5.51-0.37-10.27,3.8-10.639,9.31c-0.37,5.511,3.8,10.27,9.309,10.641c0.23,0.02,0.45,0.02,0.68,0.02
			c5.22,0,9.61-4.05,9.97-9.33C178.355,386.889,174.185,382.119,168.675,381.759z"/>
	</g>
</g>
<g>
	<g>
		<path d="M353.948,391.068c-0.369-5.509-5.129-9.679-10.639-9.309c-5.51,0.36-9.68,5.13-9.32,10.64c0.36,5.28,4.75,9.33,9.969,9.33
			c0.22,0,0.45,0,0.68-0.02C350.148,401.339,354.318,396.579,353.948,391.068z"/>
	</g>
</g>
<g>
	<g>
		<path d="M351.29,351.159c-0.37-5.511-5.13-9.681-10.64-9.32c-5.52,0.37-9.679,5.14-9.32,10.65c0.36,5.28,4.75,9.33,9.97,9.33
			c0.23,0,0.45,0,0.68-0.02C347.49,361.429,351.66,356.669,351.29,351.159z"/>
	</g>
</g>
<g>
	<g>
		<path d="M348.629,311.24c-0.37-5.511-5.13-9.681-10.639-9.311c-5.51,0.37-9.69,5.13-9.32,10.65c0.36,5.28,4.75,9.331,9.97,9.331
			c0.23,0,0.45-0.011,0.68-0.021C344.83,321.519,348.999,316.749,348.629,311.24z"/>
	</g>
</g>
<g>
	<g>
		<path d="M445.577,388.718c-0.911-5.449-6.061-9.119-11.51-8.219c-5.44,0.91-9.12,6.06-8.22,11.51c0.82,4.89,5.05,8.36,9.85,8.36
			c0.55,0,1.1-0.051,1.66-0.141C442.807,399.318,446.487,394.168,445.577,388.718z"/>
	</g>
</g>
<g>
	<g>
		<path d="M439.007,349.269c-0.91-5.45-6.06-9.13-11.51-8.22c-5.45,0.9-9.13,6.06-8.219,11.5c0.81,4.9,5.05,8.36,9.849,8.36
			c0.55,0,1.099-0.04,1.65-0.14C436.227,359.859,439.907,354.719,439.007,349.269z"/>
	</g>
</g>
<g>
	<g>
		<path d="M432.427,309.809c-0.91-5.45-6.06-9.13-11.51-8.22c-5.44,0.91-9.13,6.06-8.219,11.51c0.82,4.891,5.05,8.36,9.85,8.36
			c0.549,0,1.099-0.049,1.659-0.14C429.657,320.41,433.337,315.259,432.427,309.809z"/>
	</g>
</g>
<g>
	<g>
		<path d="M84.488,341.05c-5.45-0.91-10.6,2.77-11.509,8.22c-0.9,5.449,2.779,10.589,8.219,11.499c0.56,0.101,1.11,0.141,1.66,0.141
			c4.8,0,9.029-3.46,9.85-8.36C93.618,347.11,89.938,341.95,84.488,341.05z"/>
	</g>
</g>
<g>
	<g>
		<path d="M77.918,380.5c-5.45-0.9-10.6,2.77-11.51,8.22c-0.909,5.449,2.77,10.599,8.22,11.509c0.55,0.09,1.11,0.141,1.66,0.141
			c4.8,0,9.029-3.471,9.849-8.36C87.037,386.56,83.357,381.41,77.918,380.5z"/>
	</g>
</g>
<g>
	<g>
		<path d="M91.068,301.59c-5.45-0.91-10.6,2.77-11.509,8.22c-0.911,5.449,2.769,10.6,8.219,11.509c0.56,0.091,1.11,0.141,1.66,0.141
			c4.8,0,9.029-3.47,9.85-8.36C100.198,307.65,96.518,302.5,91.068,301.59z"/>
	</g>
</g>
<g>
</g>
<g>
</g>
<g>
</g>
<g>
</g>
<g>
</g>
<g>
</g>
<g>
</g>
<g>
</g>
<g>
</g>
<g>
</g>
<g>
</g>
<g>
</g>
<g>
</g>
<g>
</g>
<g>
</g>
</svg>
