<?xml version="1.0" encoding="UTF-8" standalone="no"?>
<svg
   xmlns:dc="http://purl.org/dc/elements/1.1/"
   xmlns:cc="http://creativecommons.org/ns#"
   xmlns:rdf="http://www.w3.org/1999/02/22-rdf-syntax-ns#"
   xmlns:svg="http://www.w3.org/2000/svg"
   xmlns="http://www.w3.org/2000/svg"
   xmlns:sodipodi="http://sodipodi.sourceforge.net/DTD/sodipodi-0.dtd"
   xmlns:inkscape="http://www.inkscape.org/namespaces/inkscape"
   version="1.1"
   id="Capa_1"
   x="0px"
   y="0px"
   viewBox="0 0 512.001 512.001"
   style="enable-background:new 0 0 512.001 512.001;"
   xml:space="preserve"
   sodipodi:docname="field.svg"
   inkscape:version="1.0.2 (1.0.2+r75+1)"><metadata
   id="metadata1257"><rdf:RDF><cc:Work
       rdf:about=""><dc:format>image/svg+xml</dc:format><dc:type
         rdf:resource="http://purl.org/dc/dcmitype/StillImage" /></cc:Work></rdf:RDF></metadata><defs
   id="defs1255" /><sodipodi:namedview
   pagecolor="#ffffff"
   bordercolor="#666666"
   borderopacity="1"
   objecttolerance="10"
   gridtolerance="10"
   guidetolerance="10"
   inkscape:pageopacity="0"
   inkscape:pageshadow="2"
   inkscape:window-width="1600"
   inkscape:window-height="863"
   id="namedview1253"
   showgrid="false"
   inkscape:zoom="1.3320287"
   inkscape:cx="239.48018"
   inkscape:cy="256.00049"
   inkscape:window-x="0"
   inkscape:window-y="0"
   inkscape:window-maximized="1"
   inkscape:current-layer="Capa_1" />
<g
   id="g1130">
	<g
   id="g1128">
		<path
   d="M511.976,502.136C511.977,502.09,511.982,232,511.982,232c0.002-5.523-4.475-10-9.998-10h-29.999v-46.391    c24.191-11.542,39.999-36.192,39.999-63.466c0-9.354-1.889-18.677-5.497-27.277c3.421-6.437,5.206-13.592,5.206-20.995    c0-24.714-20.059-44.819-44.715-44.819c-3.242,0-6.423,0.34-9.526,1.015C450.226,7.889,436.944,0,422.355,0    c-22.496,0-40.798,18.344-40.798,40.892c0,8.978,2.852,17.46,8.047,24.421c-12.339,13.453-25.833,35.454-25.833,54.83    c0,15.264,4.703,29.635,13.242,40.468c8.938,11.337,21.301,17.79,34.975,18.336V222H285.992v-41.13    c3.329,0.733,6.755,1.129,10.238,1.129c25.783,0,46.76-20.982,46.76-46.773c0-16.169-8.112-30.41-20.572-38.808    c4.792-5.78,7.656-13.212,7.656-21.321c0-17.201-13.084-31.403-29.821-33.17c0.01-0.372,0.015-0.745,0.015-1.118    C300.268,18.307,281.966,0,259.47,0c-22.497,0-40.799,18.307-40.799,40.809c0,1.317,0.063,2.626,0.187,3.925    c-29.065,8.786-49.863,35.955-49.863,67.137c0,4.642,0.457,9.257,1.361,13.784c-5.374,6.131-8.361,13.982-8.361,22.345    c0,19.661,12.213,39.5,39.499,39.5c11.219,0,18.902-2.894,24.499-5.884V222H100.998v-32.077    c26.991-5.959,39.218-36.116,39.218-66.051c0-10.415-2.305-20.646-6.713-29.973c4.522-6.532,6.952-14.266,6.952-22.398    c0-20.649-15.922-37.648-36.131-39.358C103.684,14.31,88.98,0,70.999,0C58.416,0,47.151,7.04,41.485,17.807    C18.405,20.65,0.479,40.384,0.479,64.226c0,9.438,2.806,18.502,8.014,26.185c-5.575,10.234-8.492,21.664-8.492,33.46    c0,15.626,4.491,31.624,12.32,43.891c7.434,11.646,17.393,19.204,28.678,22.003V222H10.001c-5.523,0-10,4.478-10,10v270    c0,0.045,0.006,0.089,0.006,0.134c0.093,5.322,4.704,9.88,10.024,9.866c0,0,491.922,0.001,491.944,0.001    C512.983,512.001,511.975,502.264,511.976,502.136z M383.769,120.142c0-14.425,13.914-36.658,26.355-46.9    c2.359-1.943,3.701-4.858,3.642-7.914c-0.059-3.056-1.512-5.917-3.945-7.767c-5.253-3.994-8.265-10.07-8.265-16.67    c0-11.52,9.33-20.892,20.799-20.892c9.255,0,17.481,6.241,20.005,15.178c0.803,2.843,2.821,5.185,5.513,6.398    c2.693,1.215,5.784,1.176,8.446-0.105c3.337-1.605,6.923-2.42,10.66-2.42c13.628,0,24.715,11.134,24.715,24.819    c0,5.243-1.614,10.259-4.669,14.505c-2.206,3.068-2.496,7.119-0.746,10.469c3.786,7.25,5.705,15.089,5.705,23.299    c0,20.739-12.755,39.363-31.907,46.857h-46.201C394.321,159,383.769,138.979,383.769,120.142z M451.986,179v43h-19.999v-43    H451.986z M220.93,161.375c-4.765,3.011-9.692,6.125-19.436,6.125c-16.965,0-19.499-12.216-19.499-19.498    c-0.001-8.97,11.761-12.715,9.047-21.918c-1.358-4.605-2.047-9.387-2.047-14.213c0-24.936,18.597-46.28,43.257-49.648    c3.054-0.417,5.745-2.22,7.294-4.886c3.143-5.41-0.875-10.922-0.875-16.527c0-11.475,9.331-20.81,20.8-20.81    c11.469,0,20.799,9.334,20.799,20.809c0,6.97-6.021,13.64,0.044,19.842c5.386,5.508,10.348,1.091,16.414,1.091    c7.36,0,13.348,5.991,13.348,13.355c0,7.189-5.618,13.049-12.792,13.34c-6.003,0.243-10.631,6.236-9.377,12.088    c0.016,0.073,0.046,0.209,0.064,0.282c1.039,4.362,4.854,7.499,9.334,7.676c14.403,0.567,25.686,12.314,25.686,26.743    c0,14.762-12.004,26.773-26.76,26.773c-7.153,0-13.324-6-20.239-6h-39.788C229.797,155.77,225.093,158.745,220.93,161.375z     M265.992,176v46h-19.999v-46H265.992z M20,123.871c0-10.252,3.081-20.114,8.911-28.521c2.708-3.906,2.293-9.18-0.995-12.614    c-4.797-5.01-7.439-11.583-7.439-18.509c0-14.763,12.004-26.772,26.76-26.772c0.197,0,0.393,0.009,0.588,0.016l0.241,0.008    c4.677,0.17,8.837-2.956,10.009-7.488C59.6,24.107,64.913,20,70.999,20c7.359,0,13.347,5.99,13.348,13.353    c0.001,6.11-4.717,10.911,0.21,16.572C89.15,55.201,95.049,52,100.965,52c10.747,0,19.49,8.748,19.49,19.5    c0,5.313-2.104,10.282-5.924,13.991c-3.348,3.251-4.003,8.384-1.578,12.371c4.751,7.813,7.263,16.807,7.263,26.009    c0,4.824-0.82,47.129-29.218,47.129H50.999C32.456,171,20,146.631,20,123.871z M80.998,191v31H60.999v-31H80.998z M20,242h471.984    v20H20V242z M20,281.999h23.801L20,401.009V281.999z M106.829,491.999h-34.97l9.996-58.31c0.933-5.443-2.723-10.612-8.167-11.546    c-5.443-0.926-10.612,2.723-11.546,8.167l-10.575,61.689H22.199l41.998-210h60.892L106.829,491.999z M202.166,491.999h-27.584    l3.396-59.43c0.316-5.513-3.898-10.239-9.412-10.553c-5.513-0.344-10.239,3.899-10.554,9.413l-3.461,60.57h-27.647l18.26-210    h60.654L202.166,491.999z M265.991,491.999v-60c0.001-5.522-4.476-10-9.999-10s-10,4.478-10,10v60h-23.824l3.652-210h60.343    l3.652,210H265.991z M357.434,492L357.434,492l-3.461-60.571c-0.315-5.515-5.055-9.752-10.554-9.413    c-5.514,0.314-9.728,5.04-9.413,10.554l3.396,59.43h-27.584l-3.652-210h60.654l18.26,210H357.434z M460.417,491.999    l-10.575-61.689c-0.934-5.443-6.104-9.096-11.546-8.167c-5.444,0.934-9.1,6.103-8.167,11.546l9.996,58.31h-34.97l-18.26-210    h60.892l41.999,210H460.417z M491.985,401.009l-23.801-119.01h23.801V401.009z"
   id="path1126" />
	</g>
</g>
<g
   id="g1136">
	<g
   id="g1134">
		<path
   d="M255.992,301.999c-5.52,0-10,4.479-10,10c0.001,5.52,4.481,10,10,10c5.52,0,10-4.48,10-10    C265.992,306.478,261.512,301.999,255.992,301.999z"
   id="path1132" />
	</g>
</g>
<g
   id="g1142">
	<g
   id="g1140">
		<path
   d="M255.992,381.999c-5.52,0-10,4.479-10,10c0,5.52,4.48,10,10,10c5.52,0,10-4.48,10-10    C265.992,386.479,261.512,381.999,255.992,381.999z"
   id="path1138" />
	</g>
</g>
<g
   id="g1148">
	<g
   id="g1146">
		<path
   d="M255.992,341.999c-5.52,0-10,4.479-10,10c0.001,5.52,4.481,10,10,10c5.52,0,10-4.48,10-10    C265.992,346.478,261.512,341.999,255.992,341.999z"
   id="path1144" />
	</g>
</g>
<g
   id="g1154">
	<g
   id="g1152">
		<path
   d="M173.995,301.93c-5.51-0.37-10.27,3.8-10.64,9.311c-0.37,5.508,3.8,10.278,9.31,10.648c0.23,0.01,0.45,0.021,0.68,0.021    c5.22,0,9.61-4.051,9.97-9.33C183.675,307.06,179.505,302.3,173.995,301.93z"
   id="path1150" />
	</g>
</g>
<g
   id="g1160">
	<g
   id="g1158">
		<path
   d="M171.334,341.84c-5.51-0.36-10.27,3.81-10.64,9.32c-0.368,5.509,3.802,10.269,9.311,10.639c0.23,0.02,0.45,0.02,0.68,0.02    c5.22,0,9.61-4.05,9.969-9.329C181.014,346.979,176.844,342.21,171.334,341.84z"
   id="path1156" />
	</g>
</g>
<g
   id="g1166">
	<g
   id="g1164">
		<path
   d="M168.675,381.759c-5.51-0.37-10.27,3.8-10.639,9.31c-0.37,5.511,3.8,10.27,9.309,10.641c0.23,0.02,0.45,0.02,0.68,0.02    c5.22,0,9.61-4.05,9.97-9.33C178.355,386.889,174.185,382.119,168.675,381.759z"
   id="path1162" />
	</g>
</g>
<g
   id="g1172">
	<g
   id="g1170">
		<path
   d="M353.948,391.068c-0.369-5.509-5.129-9.679-10.639-9.309c-5.51,0.36-9.68,5.13-9.32,10.64c0.36,5.28,4.75,9.33,9.969,9.33    c0.22,0,0.45,0,0.68-0.02C350.148,401.339,354.318,396.579,353.948,391.068z"
   id="path1168" />
	</g>
</g>
<g
   id="g1178">
	<g
   id="g1176">
		<path
   d="M351.29,351.159c-0.37-5.511-5.13-9.681-10.64-9.32c-5.52,0.37-9.679,5.14-9.32,10.65c0.36,5.28,4.75,9.33,9.97,9.33    c0.23,0,0.45,0,0.68-0.02C347.49,361.429,351.66,356.669,351.29,351.159z"
   id="path1174" />
	</g>
</g>
<g
   id="g1184">
	<g
   id="g1182">
		<path
   d="M348.629,311.24c-0.37-5.511-5.13-9.681-10.639-9.311c-5.51,0.37-9.69,5.13-9.32,10.65c0.36,5.28,4.75,9.331,9.97,9.331    c0.23,0,0.45-0.011,0.68-0.021C344.83,321.519,348.999,316.749,348.629,311.24z"
   id="path1180" />
	</g>
</g>
<g
   id="g1190">
	<g
   id="g1188">
		<path
   d="M445.577,388.718c-0.911-5.449-6.061-9.119-11.51-8.219c-5.44,0.91-9.12,6.06-8.22,11.51c0.82,4.89,5.05,8.36,9.85,8.36    c0.55,0,1.1-0.051,1.66-0.141C442.807,399.318,446.487,394.168,445.577,388.718z"
   id="path1186" />
	</g>
</g>
<g
   id="g1196">
	<g
   id="g1194">
		<path
   d="M439.007,349.269c-0.91-5.45-6.06-9.13-11.51-8.22c-5.45,0.9-9.13,6.06-8.219,11.5c0.81,4.9,5.05,8.36,9.849,8.36    c0.55,0,1.099-0.04,1.65-0.14C436.227,359.859,439.907,354.719,439.007,349.269z"
   id="path1192" />
	</g>
</g>
<g
   id="g1202">
	<g
   id="g1200">
		<path
   d="M432.427,309.809c-0.91-5.45-6.06-9.13-11.51-8.22c-5.44,0.91-9.13,6.06-8.219,11.51c0.82,4.891,5.05,8.36,9.85,8.36    c0.549,0,1.099-0.049,1.659-0.14C429.657,320.41,433.337,315.259,432.427,309.809z"
   id="path1198" />
	</g>
</g>
<g
   id="g1208">
	<g
   id="g1206">
		<path
   d="M84.488,341.05c-5.45-0.91-10.6,2.77-11.509,8.22c-0.9,5.449,2.779,10.589,8.219,11.499c0.56,0.101,1.11,0.141,1.66,0.141    c4.8,0,9.029-3.46,9.85-8.36C93.618,347.11,89.938,341.95,84.488,341.05z"
   id="path1204" />
	</g>
</g>
<g
   id="g1214">
	<g
   id="g1212">
		<path
   d="M77.918,380.5c-5.45-0.9-10.6,2.77-11.51,8.22c-0.909,5.449,2.77,10.599,8.22,11.509c0.55,0.09,1.11,0.141,1.66,0.141    c4.8,0,9.029-3.471,9.849-8.36C87.037,386.56,83.357,381.41,77.918,380.5z"
   id="path1210" />
	</g>
</g>
<g
   id="g1220">
	<g
   id="g1218">
		<path
   d="M91.068,301.59c-5.45-0.91-10.6,2.77-11.509,8.22c-0.911,5.449,2.769,10.6,8.219,11.509c0.56,0.091,1.11,0.141,1.66,0.141    c4.8,0,9.029-3.47,9.85-8.36C100.198,307.65,96.518,302.5,91.068,301.59z"
   id="path1216" />
	</g>
</g>
<g
   id="g1222">
</g>
<g
   id="g1224">
</g>
<g
   id="g1226">
</g>
<g
   id="g1228">
</g>
<g
   id="g1230">
</g>
<g
   id="g1232">
</g>
<g
   id="g1234">
</g>
<g
   id="g1236">
</g>
<g
   id="g1238">
</g>
<g
   id="g1240">
</g>
<g
   id="g1242">
</g>
<g
   id="g1244">
</g>
<g
   id="g1246">
</g>
<g
   id="g1248">
</g>
<g
   id="g1250">
</g>
<path
   style="fill:#1b1734;stroke-width:0.750735;fill-opacity:1"
   d="M 7.8042357,511.19223 C 4.6281909,510.26687 1.6612752,507.12438 0.74261402,503.71274 0.23605092,501.8315 0.04637888,455.25321 0.17768799,364.98229 L 0.37536728,229.08394 1.9302023,226.96447 c 3.1976847,-4.35891 5.0693721,-4.74459 23.0317217,-4.74587 l 16.328477,-0.001 v -16.43477 -16.43477 l -2.064407,-0.51814 C 31.387172,186.86233 19.943175,178.02903 14.115883,169.44796 9.7814739,163.06526 5.5987096,153.76476 3.1971615,145.16986 1.2982436,138.37383 1.1266505,136.67114 1.126388,124.62194 1.126074,110.20569 1.9921517,105.58346 6.6301311,95.248675 L 8.8625072,90.274278 7.1014888,87.321173 C 6.1329286,85.696967 4.4114176,81.685582 3.2759084,78.406981 1.5100517,73.308351 1.211346,71.251088 1.211346,64.187806 c 0,-7.023842 0.3024672,-9.130848 2.0237576,-14.097619 C 8.5638072,34.714251 20.667498,23.3281 35.735873,19.516153 c 4.255528,-1.07655 6.247233,-1.976849 7.053772,-3.188477 2.093041,-3.144288 7.871117,-9.0153276 10.512509,-10.6816448 10.454364,-6.59511435 24.817896,-6.6702551 34.988848,-0.1830389 3.7576,2.3966641 8.215814,6.8650127 10.653592,10.6778007 2.214566,3.463677 4.656776,10.77501 4.656776,13.941173 0,1.76292 0.38808,2.252408 2.06452,2.604015 6.84998,1.436675 9.04821,2.130311 12.87788,4.063517 8.90586,4.495669 16.62659,13.622672 19.672,23.255117 3.14031,9.932644 1.69743,22.666088 -3.50164,30.901947 -1.74251,2.760308 -1.79066,3.093859 -0.73995,5.125708 0.61811,1.195297 2.04411,5.16094 3.16888,8.81254 1.90303,6.17832 2.04547,7.57748 2.05153,20.1525 0.008,15.05821 -1.10503,21.72833 -5.54189,33.23348 -5.76584,14.95133 -17.74607,27.3148 -29.34988,30.28877 l -3.70439,0.9494 v 16.37424 16.37423 h 63.06171 63.0617 V 201.9476 c 0,-11.14841 -0.21328,-20.26983 -0.47395,-20.26983 -0.26067,0 -3.55451,1.06745 -7.31966,2.37211 -7.99527,2.77045 -19.56271,3.70025 -26.95133,2.16638 -10.04824,-2.086 -20.37259,-9.79215 -24.78502,-18.49965 -6.49046,-12.80831 -6.17153,-27.74566 0.8134,-38.09536 l 2.21447,-3.28123 -0.38074,-10.58709 c -0.40265,-11.19623 0.20609,-16.295554 2.97416,-24.914047 6.44383,-20.063161 23.47608,-37.908525 42.26351,-44.281136 l 3.76245,-1.276206 0.44003,-6.312293 c 0.51281,-7.356457 1.40417,-10.457236 4.99587,-17.379261 4.84629,-9.33988 15.81977,-17.7828227 26.11858,-20.0955061 5.33105,-1.19713018 15.04999,-0.98875922 19.87084,0.4260244 16.37896,4.8067704 29.27864,20.8926367 29.27864,36.5103837 0,3.296138 0.16457,3.618013 2.06452,4.037937 12.36315,2.732474 20.2449,9.009633 25.51942,20.324089 1.79987,3.860925 2.05137,5.314356 2.06012,11.905175 0.011,8.239056 -1.13588,12.461255 -4.94026,18.188459 l -2.10822,3.173775 6.21099,6.210986 c 9.61983,9.61983 13.9853,19.87727 13.9853,32.86091 0,12.72631 -4.40491,23.31933 -13.44508,32.33304 -9.49163,9.46384 -19.12544,13.72026 -31.22362,13.79526 -3.71614,0.023 -7.93902,-0.12704 -9.38419,-0.33349 l -2.62757,-0.37537 -0.19956,20.83289 -0.19956,20.83288 h 63.44895 63.44895 v -21.70085 -21.70085 l -3.94136,-0.53806 c -25.36798,-3.46306 -43.7668,-27.64022 -43.68857,-57.4094 0.0258,-9.8054 1.06801,-14.47279 5.55679,-24.884603 3.42631,-7.947404 9.27949,-17.480862 15.23438,-24.813244 2.3742,-2.9234 4.31672,-5.612681 4.31672,-5.97618 0,-0.363498 -0.79175,-1.921058 -1.75946,-3.461243 -4.81953,-7.670726 -6.92708,-19.789074 -5.02986,-28.921529 3.05473,-14.704242 16.07017,-28.0853907 30.46109,-31.3169901 5.33105,-1.19713018 15.04999,-0.98875922 19.87084,0.4260244 8.558,2.5115369 18.4646,9.6617167 22.23894,16.0511707 l 1.32259,2.238963 6.85618,-0.450366 c 16.25953,-1.068049 30.74063,5.991469 39.8932,19.447881 4.74486,6.976059 7.02232,13.729289 7.53802,22.352081 0.41047,6.863256 -0.83582,13.987243 -3.501,20.012331 -1.42956,3.23174 -1.42901,3.30887 0.0534,7.579424 2.61529,7.534117 3.67504,14.28502 3.67504,23.41101 0,18.56992 -6.9797,35.36894 -20.31199,48.88769 -4.75828,4.82481 -14.6914,12.05278 -18.01211,13.10673 -1.41165,0.44805 -1.46479,1.32101 -1.46479,24.06247 v 23.59754 h 15.78954 c 17.21945,0 19.43891,0.41065 22.37187,4.13931 l 1.62752,2.06906 v 138.834 c 0,93.78511 -0.25082,139.30267 -0.77298,140.27835 -0.42515,0.79439 -1.86093,2.03905 -3.19063,2.7659 -2.29278,1.25331 -15.19205,1.3279 -249.78467,1.4444 C 111.81025,511.82082 9.1769366,511.59219 7.8042357,511.19223 Z M 52.152118,490.79272 c 0.209021,-0.92903 2.619898,-14.86454 5.357506,-30.9678 2.737608,-16.10325 5.424258,-30.3692 5.970333,-31.70209 2.087649,-5.09568 9.107484,-6.98278 13.922369,-3.74267 4.983286,3.35343 4.976995,3.839 -0.461462,35.62971 -2.666752,15.58863 -5.049285,29.272 -5.294513,30.40749 l -0.445867,2.06452 H 89.27776 c 15.92157,0 18.07728,-0.14046 18.07728,-1.17791 0,-0.64785 4.05397,-47.7519 9.00882,-104.67567 4.95485,-56.92376 9.00881,-103.8589 9.00881,-104.30029 0,-0.55652 -9.4359,-0.80255 -30.780114,-0.80255 -16.929065,0 -30.780118,0.0879 -30.780118,0.19529 0,0.10741 -9.459255,47.48472 -21.020568,105.28292 -11.561312,57.7982 -21.020567,105.17551 -21.020567,105.28292 0,0.10741 6.750175,0.19529 15.000388,0.19529 14.942865,0 15.001845,-0.007 15.380427,-1.68916 z m 102.809202,-0.75073 c 0.20793,-1.34194 1.08863,-15.41895 1.95714,-31.28225 1.67377,-30.5717 1.82337,-31.47763 5.70182,-34.52842 3.98414,-3.13392 11.14017,-1.47552 13.53636,3.13704 1.53105,2.94722 1.50479,5.01069 -0.4942,38.83781 -0.81742,13.83228 -1.48752,25.40298 -1.48911,25.71266 -0.002,0.30967 6.41587,0.56305 14.26105,0.56305 h 14.26395 l -3.6e-4,-6.19356 c -4.8e-4,-8.21432 2.84197,-174.38274 3.27469,-191.43732 l 0.33811,-13.32554 h -30.63905 -30.63905 l -0.45002,3.56599 c -0.70433,5.58114 -17.70851,202.51719 -17.70851,205.09332 v 2.29711 h 13.85458 13.85456 z m 91.27962,-28.36434 c 0,-34.07098 0.079,-34.70839 4.64691,-37.49338 4.94459,-3.01462 11.65119,-1.01979 13.79127,4.10213 0.88114,2.10889 1.08092,8.28023 1.08092,33.39125 v 30.80423 l 12.19943,5.6e-4 12.19944,5.6e-4 -0.20055,-10.69853 c -0.96007,-51.21599 -3.17904,-185.12541 -3.17847,-191.81324 l 7.2e-4,-8.44577 h -30.78012 -30.78012 l 3.6e-4,8.0704 c 2.9e-4,6.33344 -1.82239,116.28936 -3.17335,191.43732 l -0.20582,11.4487 h 12.19969 12.19969 z m 91.5613,29.86581 c -0.0156,-0.51613 -0.82257,-14.28273 -1.7933,-30.59243 -1.71057,-28.73966 -1.72329,-29.75076 -0.41285,-32.79134 3.13301,-7.26939 13.14657,-7.44863 16.84251,-0.30147 0.76874,1.48658 1.50391,10.07903 2.64392,30.90152 0.8685,15.8633 1.74921,29.94031 1.95713,31.28225 l 0.37804,2.43989 h 13.85457 13.85457 v -2.29711 c 0,-2.57613 -17.00417,-199.51218 -17.7085,-205.09332 l -0.45002,-3.56599 H 336.2961 305.62389 l 0.37633,14.07628 c 0.41975,15.70023 3.30467,182.8911 3.30329,191.43731 l -8.7e-4,5.44283 h 14.26396 c 10.92578,0 14.25733,-0.21962 14.23564,-0.93842 z m 102.53032,-0.75074 c -0.20748,-0.92903 -2.59895,-14.74254 -5.31438,-30.69668 -4.6736,-27.45912 -4.87705,-29.15136 -3.81128,-31.70209 3.04997,-7.29963 14.3701,-7.47693 17.31,-0.27112 0.54381,1.33289 3.25215,15.76775 6.01853,32.07746 2.76637,16.30971 5.19543,30.24522 5.39791,30.9678 0.33484,1.19498 1.72144,1.31379 15.33223,1.31379 8.23026,0 14.9641,-0.0879 14.9641,-0.19529 0,-0.10741 -9.45925,-47.48472 -21.02056,-105.28292 -11.56132,-57.7982 -21.02057,-105.17551 -21.02057,-105.28292 0,-0.10741 -13.85105,-0.19529 -30.78012,-0.19529 -24.6294,0 -30.78012,0.19349 -30.78012,0.96826 0,0.53253 4.05397,47.56201 9.00882,104.50995 4.95485,56.94794 9.00881,103.97742 9.00881,104.50996 0,0.76364 3.81057,0.96825 18.03193,0.96825 H 440.7098 Z M 32.224897,342.33496 c 6.284494,-31.58715 11.607447,-58.19131 11.828783,-59.12034 l 0.402431,-1.68916 H 31.987605 19.519099 v 59.83355 c 0,33.02454 0.286634,59.51399 0.639723,59.12035 0.351848,-0.39226 5.781581,-26.55724 12.066075,-58.1444 z m 460.256983,-1.1261 v -59.6834 h -12.46851 -12.46851 l 0.4018,1.68916 c 0.221,0.92903 5.5103,27.36427 11.75402,58.74498 11.75501,59.08027 11.724,58.93266 12.38227,58.93266 0.21941,0 0.39893,-26.85753 0.39893,-59.6834 z m 0,-89.33741 V 241.73653 H 256.00049 19.519099 v 10.13492 10.13491 H 256.00049 492.48188 Z M 81.079334,206.45201 V 190.68658 H 70.944417 60.8095 v 15.76543 15.76542 H 70.944417 81.079334 Z M 266.51077,198.94466 V 175.67189 H 256.00049 245.4902 v 23.27277 23.27277 h 10.51029 10.51028 z m 186.18218,1.50147 v -21.7713 h -10.51029 -10.51028 v 21.7713 21.7713 h 10.51028 10.51029 z M 99.365246,169.96173 c 5.601774,-1.90872 11.267564,-7.63647 14.686674,-14.84728 3.40432,-7.17961 4.91116,-13.03922 6.05367,-23.54058 1.31209,-12.06018 -0.38709,-21.3698 -5.89009,-32.271183 -3.5028,-6.939025 -3.37165,-7.73183 2.67354,-16.160733 7.59958,-10.596203 3.68986,-24.57573 -8.36205,-29.899218 -3.35719,-1.482914 -4.46902,-1.589633 -11.756861,-1.128481 l -8.049023,0.509318 -2.642045,-2.319745 C 82.708367,47.344321 82.196667,44.866399 83.732369,38.939929 85.145928,33.48482 84.77023,29.44291 82.509618,25.785167 79.532498,20.968086 73.07517,18.622296 67.267911,20.248228 c -4.196397,1.174918 -6.976757,3.813712 -9.116704,8.652513 -2.558021,5.78414 -5.090089,7.567047 -11.667038,8.215123 -7.555548,0.744505 -12.725356,2.870417 -17.424655,7.165311 -5.470908,5.000102 -8.190158,10.70147 -8.62968,18.093589 -0.454613,7.645905 1.060027,12.596676 5.831262,19.06014 4.861986,6.586405 4.981914,8.963448 0.808715,16.029339 -1.627763,2.756067 -3.88171,7.713667 -5.008769,11.016907 -1.762496,5.16559 -2.057411,7.2663 -2.107888,15.01469 -0.07268,11.15669 1.469552,18.38595 5.963489,27.95403 4.047032,8.61656 9.337139,14.5189 15.749126,17.57178 l 4.504407,2.14465 24.828189,5.9e-4 c 20.830219,4.9e-4 25.398011,-0.19356 28.366881,-1.20516 z m 113.468004,-4.02411 c 2.06452,-0.71257 5.94957,-2.63243 8.63345,-4.26637 8.71295,-5.30445 7.64131,-5.14309 34.15842,-5.14309 h 24.02351 l 5.63051,2.62757 c 5.06141,2.36199 6.27548,2.62609 12.01175,2.61295 7.83602,-0.0179 11.73051,-1.59267 17.54962,-7.09614 8.67619,-8.20558 10.95449,-21.2397 5.5666,-31.84639 -3.8434,-7.56617 -12.48619,-13.51793 -21.03133,-14.48297 -5.09357,-0.57525 -7.79575,-1.96976 -9.62263,-4.96594 -1.94548,-3.1907 -1.86294,-6.991284 0.21808,-10.041602 1.67619,-2.456936 5.95536,-4.748959 8.86623,-4.748959 2.40137,0 7.19298,-2.768379 8.8714,-5.125497 3.34433,-4.696678 3.34433,-12.078774 0,-16.77545 -0.84458,-1.186103 -2.9247,-2.865219 -4.62249,-3.731368 -2.6703,-1.36228 -3.8016,-1.500047 -8.38255,-1.020801 -11.84414,1.239102 -13.63848,0.701487 -15.9577,-4.781183 -0.96516,-2.281667 -0.90486,-3.218674 0.61208,-9.510987 1.49295,-6.192836 1.57939,-7.441648 0.76651,-11.073951 -1.23279,-5.508705 -4.6045,-10.599038 -8.77054,-13.241063 -16.49511,-10.460886 -36.69684,3.473947 -32.21761,22.223194 1.36627,5.718989 1.35539,8.831845 -0.0403,11.530828 -1.42838,2.762195 -3.75801,3.945127 -10.87294,5.52104 -3.09678,0.685917 -8.50207,2.661182 -12.01175,4.389478 -18.5543,9.13681 -30.58537,32.120856 -27.02335,51.625141 0.49016,2.68388 1.06083,6.73784 1.26816,9.00882 0.37117,4.0656 0.31057,4.21985 -3.94453,10.03967 -3.51192,4.80336 -4.38707,6.59308 -4.67153,9.55349 -0.72028,7.49608 2.58527,14.75641 8.13975,17.87821 5.67007,3.18675 15.05661,3.53233 22.8532,0.84137 z m 253.59967,-9.58067 c 6.57204,-3.45351 14.82263,-11.4744 18.74851,-18.22655 4.87048,-8.37678 6.77216,-15.50557 6.80779,-25.52021 0.0331,-9.30906 -1.05446,-14.741353 -4.38259,-21.890501 -2.56402,-5.507772 -2.39783,-8.097483 0.8978,-13.990637 2.47587,-4.427265 2.81145,-5.669524 3.07496,-11.383001 0.24475,-5.306922 0.005,-7.186493 -1.39315,-10.894528 -4.72909,-12.547324 -19.22002,-18.617412 -33.03301,-13.837144 -7.71465,2.669815 -12.44602,0.39273 -15.13132,-7.282309 -4.94316,-14.128332 -24.09523,-18.248581 -34.5908,-7.441634 -3.87512,3.990075 -5.87573,8.530118 -6.03202,13.688609 -0.21088,6.960018 1.38073,11.026162 6.42786,16.421563 7.73731,8.271216 7.43139,11.144073 -2.23879,21.023941 -9.22076,9.420705 -17.03321,22.016184 -20.37515,32.849461 -5.88384,19.07316 4.32675,43.16678 20.42703,48.20104 2.31301,0.72324 9.99521,0.99341 29.30086,1.03045 l 26.16593,0.0502 z"
   id="path1259" /><path
   style="fill:#1b1734;fill-opacity:1;stroke-width:0.750735"
   d="m 251.02522,320.05037 c -2.78331,-1.72738 -4.40891,-4.83732 -4.40891,-8.4347 0,-2.46683 0.51549,-3.64831 2.56988,-5.89004 2.38711,-2.60478 2.87177,-2.80423 6.8143,-2.80423 3.94253,0 4.42719,0.19945 6.8143,2.80423 2.05439,2.24173 2.56988,3.42321 2.56988,5.89004 0,5.69071 -3.95207,9.71714 -9.50001,9.67875 -1.58791,-0.011 -3.77466,-0.57081 -4.85944,-1.24405 z"
   id="path1822" /><path
   style="fill:#1b1734;fill-opacity:1;stroke-width:0.750735"
   d="m 253.77958,361.31352 c -8.93959,-2.31381 -9.54142,-14.84839 -0.87136,-18.14824 7.79484,-2.96674 15.28672,5.82155 11.38872,13.35944 -1.82079,3.52102 -6.74789,5.76444 -10.51736,4.7888 z"
   id="path1824" /><path
   style="fill:#1b1734;fill-opacity:1;stroke-width:0.750735"
   d="m 251.34484,400.17192 c -8.26273,-5.03808 -4.94377,-17.54753 4.65565,-17.54753 7.45017,0 11.81744,7.88673 7.9131,14.29007 -2.77832,4.5566 -8.15338,5.94966 -12.56875,3.25746 z"
   id="path1826" /><path
   style="fill:#1b1734;fill-opacity:1;stroke-width:0.750735"
   d="m 165.94363,401.07647 c -4.31087,-1.03958 -7.16327,-4.944 -7.16327,-9.80523 0,-3.33747 1.95898,-6.31673 5.28415,-8.03624 6.5133,-3.36816 14.24115,2.22685 13.25285,9.59515 -0.71272,5.31372 -6.40887,9.44361 -11.37373,8.24632 z"
   id="path1828" /><path
   style="fill:#1b1734;fill-opacity:1;stroke-width:0.750735"
   d=""
   id="path1830" /><path
   style="fill:#1b1734;fill-opacity:1;stroke-width:0.750735"
   d=""
   id="path1832" /><path
   style="fill:#1b1734;fill-opacity:1;stroke-width:0.750735"
   d="m 85.583741,319.89892 c -7.79332,-3.5879 -7.275444,-14.45895 0.823264,-17.28163 3.897285,-1.35834 6.624996,-0.65586 9.806345,2.52549 2.076547,2.07655 2.507763,3.07031 2.50544,5.77394 -0.0035,4.12061 -2.032241,7.5151 -5.464846,9.14398 -3.295609,1.56386 -3.951989,1.55002 -7.670203,-0.16178 z"
   id="path1838" /><path
   style="fill:#1b1734;fill-opacity:1;stroke-width:0.750735"
   d="m 77.925159,358.88152 c -4.705742,-2.86926 -6.008039,-8.41999 -3.016852,-12.85861 6.593041,-9.78341 21.150974,-2.07897 16.393577,8.67591 -2.389658,5.40222 -8.330207,7.25974 -13.376725,4.1827 z"
   id="path1840" /><path
   style="fill:#1b1734;fill-opacity:1;stroke-width:0.750735"
   d="m 73.197006,399.29811 c -7.05634,-2.81374 -8.579105,-11.2412 -2.89535,-16.02376 4.275771,-3.59783 8.007615,-3.42797 12.362147,0.56266 4.856694,4.45083 3.891166,11.12945 -2.140659,14.8071 -2.681189,1.63474 -4.466862,1.79415 -7.326138,0.654 z"
   id="path1842" /><path
   style="fill:#1b1734;fill-opacity:1;stroke-width:0.750735"
   d="m 332.46775,318.82794 c -2.28212,-2.0914 -2.77255,-3.10422 -3.0868,-6.37468 -0.35916,-3.73782 -0.2572,-4.00464 2.63589,-6.89773 2.66478,-2.66478 3.4167,-3.0095 6.56445,-3.0095 5.19808,0 9.38418,4.1861 9.38418,9.38418 0,3.12851 -0.34963,3.90458 -2.91461,6.46957 -2.54675,2.54675 -3.35355,2.91462 -6.39227,2.91462 -2.89025,0 -3.93594,-0.41999 -6.19084,-2.48646 z"
   id="path1844" /><path
   style="fill:#1b1734;fill-opacity:1;stroke-width:0.750735"
   d="m 167.045,318.49466 c -2.55981,-2.55981 -3.0095,-3.48214 -3.0095,-6.17261 0,-5.84018 3.90472,-9.77602 9.69873,-9.77602 2.46683,0 3.64831,0.51549 5.89004,2.56989 2.59383,2.37706 2.80423,2.88293 2.80423,6.74217 0,3.68103 -0.27907,4.45136 -2.37014,6.54243 -1.86564,1.86564 -3.18258,2.44821 -6.187,2.73689 -3.65244,0.35096 -3.94649,0.23712 -6.82636,-2.64275 z"
   id="path1846" /><path
   style="fill:#1b1734;fill-opacity:1;stroke-width:0.750735"
   d="m 165.24785,359.53557 c -2.49047,-1.959 -4.21614,-5.22267 -4.21248,-7.96683 0.004,-2.85014 2.44828,-6.65764 5.18186,-8.07123 8.74908,-4.52432 17.60472,5.39993 12.22736,13.70283 -2.56582,3.96175 -9.55636,5.19876 -13.19674,2.33523 z"
   id="path1848" /><path
   style="fill:#1b1734;fill-opacity:1;stroke-width:0.750735"
   d="m 336.62433,359.97955 c -4.32398,-2.35021 -5.85981,-7.24651 -3.76118,-11.99081 3.48449,-7.87727 14.43561,-7.37037 17.28327,0.8 1.35834,3.89728 0.65586,6.62499 -2.52549,9.80634 -2.09117,2.09117 -3.05128,2.50325 -5.77394,2.47819 -1.79614,-0.0165 -4.14633,-0.50871 -5.22266,-1.09372 z"
   id="path1850" /><path
   style="fill:#1b1734;fill-opacity:1;stroke-width:0.750735"
   d="m 341.55603,400.82584 c -7.88907,-2.22998 -9.36907,-12.96648 -2.37524,-17.23087 5.99996,-3.65839 14.03983,0.7374 14.03983,7.67627 0,6.763 -5.52633,11.28969 -11.66459,9.5546 z"
   id="path1852" /><path
   style="fill:#1b1734;fill-opacity:1;stroke-width:0.750735"
   d="m 431.67238,398.74474 c -3.97909,-2.45786 -5.25514,-4.46207 -5.25514,-8.2539 0,-4.08249 1.77611,-6.90201 5.46829,-8.68072 3.36376,-1.6205 5.4882,-1.49265 8.49696,0.51137 6.86434,4.57207 6.15738,13.66705 -1.3047,16.78491 -3.28502,1.37257 -4.71054,1.30295 -7.40541,-0.36166 z"
   id="path1854" /><path
   style="fill:#1b1734;fill-opacity:1;stroke-width:0.750735"
   d="m 424.09091,358.92841 c -2.79768,-1.70599 -5.04133,-6.72524 -4.32725,-9.68045 1.82414,-7.54925 11.21699,-10.30024 16.1852,-4.74035 7.28701,8.15488 -2.53834,20.10379 -11.85795,14.4208 z"
   id="path1856" /><path
   style="fill:#1b1734;fill-opacity:1;stroke-width:0.750735"
   d="m 418.73699,320.20137 c -3.22607,-1.40246 -5.45128,-5.19002 -5.4548,-9.28465 -0.002,-2.70363 0.42889,-3.69739 2.50544,-5.77394 3.18135,-3.18135 5.90906,-3.88383 9.80634,-2.52549 8.25969,2.87878 8.53154,14.24898 0.41829,17.49526 -3.60112,1.44088 -4.14973,1.44758 -7.27527,0.0888 z"
   id="path1858" /></svg>
