<?xml version="1.0" encoding="UTF-8" standalone="no"?>
<svg
   xmlns:dc="http://purl.org/dc/elements/1.1/"
   xmlns:cc="http://creativecommons.org/ns#"
   xmlns:rdf="http://www.w3.org/1999/02/22-rdf-syntax-ns#"
   xmlns:svg="http://www.w3.org/2000/svg"
   xmlns="http://www.w3.org/2000/svg"
   xmlns:sodipodi="http://sodipodi.sourceforge.net/DTD/sodipodi-0.dtd"
   xmlns:inkscape="http://www.inkscape.org/namespaces/inkscape"
   id="Capa_1"
   enable-background="new 0 0 512 512"
   height="512"
   viewBox="0 0 512 512"
   width="512"
   version="1.1"
   sodipodi:docname="income.svg"
   inkscape:version="1.0.2 (1.0.2+r75+1)">
  <metadata
     id="metadata101">
    <rdf:RDF>
      <cc:Work
         rdf:about="">
        <dc:format>image/svg+xml</dc:format>
        <dc:type
           rdf:resource="http://purl.org/dc/dcmitype/StillImage" />
      </cc:Work>
    </rdf:RDF>
  </metadata>
  <defs
     id="defs99" />
  <sodipodi:namedview
     pagecolor="#ffffff"
     bordercolor="#666666"
     borderopacity="1"
     objecttolerance="10"
     gridtolerance="10"
     guidetolerance="10"
     inkscape:pageopacity="0"
     inkscape:pageshadow="2"
     inkscape:window-width="1600"
     inkscape:window-height="863"
     id="namedview97"
     showgrid="false"
     inkscape:zoom="1.2597656"
     inkscape:cx="256"
     inkscape:cy="256"
     inkscape:window-x="0"
     inkscape:window-y="0"
     inkscape:window-maximized="1"
     inkscape:current-layer="Capa_1" />
  <g
     id="g94">
    <path
       d="m305.409 253.32c69.84 0 126.65-56.82 126.65-126.66s-56.81-126.66-126.65-126.66-126.66 56.82-126.66 126.66 56.82 126.66 126.66 126.66zm-15-201.11v-3.44c0-8.29 6.71-15 15-15 8.28 0 15 6.71 15 15v3.46c17.85 3.83 31.28 19.73 31.28 38.71 0 8.28-6.72 15-15 15-8.29 0-15-6.72-15-15 0-5.29-4.31-9.6-9.6-9.6h-13.45c-5.29 0-9.6 4.31-9.6 9.6 0 3.03 1.45 5.91 3.89 7.71l12.48 9.24 30.32 22.44c9.96 7.37 15.96 19.16 16.04 31.56v.14c.07 10.58-3.98 20.56-11.42 28.09-5.52 5.59-12.42 9.34-19.94 10.92v3.51c0 8.29-6.72 15-15 15-8.29 0-15-6.71-15-15v-3.46c-7.32-1.56-14.05-5.16-19.49-10.54-7.53-7.43-11.71-17.35-11.77-27.93-.05-8.28 6.62-15.04 14.9-15.09h.1c8.24 0 14.95 6.66 15 14.91.02 5.177 4.185 9.54 9.65 9.54 8.288-.05 5.201-.032 13.43-.08 5.324-.042 9.581-4.363 9.54-9.67v-.14c-.02-3-1.47-5.86-3.89-7.65l-12.47-9.23-30.33-22.44c-10.04-7.44-16.04-19.34-16.04-31.83 0-19.02 13.47-34.93 31.37-38.73z"
       id="path88" />
    <path
       d="m100.188 325.392c-3.845-6.666-12.386-8.985-19.093-5.116l-70.558 40.73c-6.681 3.867-8.973 12.412-5.116 19.102l72.114 124.902c3.86 6.679 12.4 8.973 19.093 5.116l70.558-40.74c6.691-3.858 8.974-12.403 5.116-19.093z"
       id="path90" />
    <path
       d="m504.478 300.46c-6.79-9.43-19.93-11.56-29.35-4.77-28.58 20.59-83.46 60.13-87.82 63.28-2.01 1.71-4.12 3.26-6.32 4.63-8.63 5.43-18.64 8.33-29.09 8.33h-71.85c-8.28 0-15-6.71-15-15 0-8.3 6.73-15 15-15h76.84c11.29 0 20.33-9.4 19.86-20.71-.44-10.73-9.6-19.05-20.34-19.05h-58.49c-3.96-4.19-8.3-8.03-12.95-11.46-15.99-11.79-35.75-18.76-57.14-18.76-38.03 0-75.87 23.96-91.56 55.94l61.36 106.27h115.1c22.6 0 44.86-5.78 64.45-17.05 6.79-3.9 14.06-8.59 21.94-14.25 33.02-23.72 100.53-73 100.58-73.03 9.44-6.78 11.58-19.94 4.78-29.37z"
       id="path92" />
  </g>
  <path
     style="fill:#a0a0a0;stroke:none;stroke-width:0.793798"
     d="m 84.142636,510.11018 c -1.746357,-0.80193 -3.753341,-2.13362 -4.459963,-2.95931 C 78.4965,505.76482 8.6981588,385.15367 5.6071176,379.14871 2.8517657,373.7959 4.2626335,366.9737 8.9345817,363.0589 10.168956,362.02456 27.594309,351.71225 47.657589,340.14264 c 34.623962,-19.96612 36.683599,-21.03566 40.508835,-21.03566 8.210067,0 6.149787,-2.97753 47.573106,68.75299 35.53588,61.53555 37.31948,64.81258 37.53894,68.97104 0.26564,5.03339 -1.2463,8.13104 -5.52096,11.31133 -3.3234,2.47257 -69.971646,40.93243 -73.455683,42.38816 -3.4585,1.44504 -6.358262,1.32508 -10.159191,-0.42032 z"
     id="path103" />
  <path
     style="fill:#a0a0a0;stroke:none;stroke-width:0.793798"
     d="m 196.969,432.02481 c -3.19349,-5.0912 -60.03877,-104.01241 -60.03877,-104.47847 0,-1.8378 10.46541,-16.20313 16.02192,-21.99246 27.6163,-28.77347 68.7828,-40.06708 104.06605,-28.54946 13.25273,4.32613 25.83436,11.66539 35.29113,20.58643 l 5.55814,5.24326 h 31.48246 c 33.89294,0 34.14924,0.0277 39.74396,4.295 1.34445,1.02546 3.47717,3.7619 4.73937,6.08098 5.18456,9.52574 1.43083,20.93768 -8.68597,26.40676 -3.11751,1.6853 -3.9695,1.72369 -46.89357,2.11338 l -43.71837,0.3969 -3.21802,2.13057 c -8.25534,5.46565 -8.71003,18.75102 -0.847,24.74845 1.50488,1.14783 4.62879,2.4459 6.94203,2.88459 5.31462,1.0079 69.14298,1.02101 79.46589,0.0163 8.70417,-0.84714 18.82464,-4.20399 24.70457,-8.19427 2.05412,-1.39397 11.16296,-7.91881 20.24186,-14.49965 54.16825,-39.2638 74.83899,-53.94034 77.87224,-55.29048 6.92384,-3.08189 16.40895,-1.24144 22.12939,4.2939 7.7159,7.46623 7.7159,21.72691 0,29.02499 -2.20695,2.0874 -21.04048,15.8758 -88.65422,64.90544 -30.26216,21.94439 -42.99268,29.3948 -59.53488,34.84214 -19.73415,6.49846 -24.04433,6.80754 -95.03907,6.81518 l -60.50883,0.007 z"
     id="path105" />
  <path
     style="fill:#a0a0a0;stroke:none;stroke-width:0.793798"
     d="m 83.380121,509.00249 c -3.551087,-2.01132 -1.591102,1.10145 -28.601786,-45.4242 C 21.083624,405.53947 6.1658746,379.30923 5.2164409,376.43242 c -1.2158653,-3.68411 0.00671,-8.49916 2.9589608,-11.6537 2.0942243,-2.23773 16.1073563,-10.67645 49.7718853,-29.97269 30.031173,-17.21362 32.265105,-17.94171 37.657306,-12.27333 4.501727,4.73231 16.944137,25.61794 58.099947,97.52571 16.85701,29.45271 18.94515,33.64579 18.946,38.04436 7.9e-4,5.39074 -2.40877,7.93413 -14.3015,15.09435 -12.48467,7.5166 -57.58124,33.4493 -62.466252,35.92112 -4.284877,2.16814 -8.539882,2.12875 -12.502667,-0.11575 z"
     id="path107" />
  <path
     style="fill:#a0a0a0;stroke:none;stroke-width:0.793798"
     d="M 83.54431,509.16613 C 79.907091,507.24603 82.018245,510.61409 52.232525,459.2124 15.90276,396.51755 5.4634507,378.09945 4.8613702,375.63538 c -0.758808,-3.10551 0.7810885,-8.15016 3.3140315,-10.85666 2.0942243,-2.23773 16.1073563,-10.67645 49.7718853,-29.97269 22.651893,-12.98388 27.417798,-15.30215 31.458129,-15.30215 5.795999,0 7.62607,2.54985 32.298774,45.00223 25.16125,43.29296 45.54716,79.08128 48.2822,84.76142 5.41475,11.24535 3.75216,14.66408 -11.63735,23.92959 -12.48467,7.5166 -57.58124,33.4493 -62.466252,35.92112 -4.133245,2.09142 -8.435815,2.10812 -12.338478,0.0479 z"
     id="path109" />
  <path
     style="fill:#a0a0a0;stroke:none;stroke-width:0.793798"
     d="m 186.18734,412.56537 c -38.5233,-66.67361 -48.55353,-84.65249 -48.12045,-86.25447 0.82188,-3.04024 10.97488,-15.86823 18.31363,-23.13871 14.29856,-14.16553 32.61286,-23.91914 52.99678,-28.2244 10.47668,-2.21276 27.28814,-2.36833 36.70022,-0.33961 17.57897,3.78904 33.68193,12.02066 45.93159,23.47962 l 5.07382,4.74631 17.75931,0.0697 c 9.76762,0.0383 24.79148,0.31191 33.38634,0.60792 l 15.62704,0.53822 3.34175,2.36882 c 9.7745,6.92872 11.04974,21.25226 2.58695,29.05676 -5.61088,5.17444 -4.7205,5.01708 -31.59069,5.58324 -13.55378,0.28558 -33.59848,0.55349 -44.54377,0.59535 l -19.90053,0.0761 -3.42136,2.92857 c -4.1468,3.54949 -5.59619,6.76109 -5.59619,12.40016 0,5.87728 2.59268,10.64786 7.19993,13.24802 l 3.51635,1.98449 h 42.46822 c 41.98709,0 42.54016,-0.0207 48.8186,-1.83121 7.6619,-2.2094 13.7181,-5.14013 19.49908,-9.43603 23.71414,-17.62221 89.6346,-64.47186 93.6172,-66.53373 6.18059,-3.19981 17.2667,-0.75595 22.23383,4.9013 3.81501,4.34506 4.90944,7.8092 4.61689,14.61353 -0.45274,10.52995 3.70024,6.88504 -63.76235,55.96167 -58.94622,42.88127 -70.96636,50.42429 -90.88992,57.03628 -14.4884,4.80823 -19.07972,5.30028 -56.35969,6.03995 -18.55504,0.36815 -48.0248,0.68635 -65.48837,0.70712 l -31.75194,0.0378 -12.26227,-21.22273 z"
     id="path111" />
  <path
     style="fill:#a0a0a0;stroke:none;stroke-width:0.793798"
     d="m 292.91163,252.35603 c -29.00843,-4.14605 -50.16935,-13.38771 -70.20924,-30.66264 -29.94104,-25.81 -46.67809,-66.63694 -43.05931,-105.03519 1.6399,-17.400594 5.37956,-30.694051 12.94338,-46.010138 13.23253,-26.794713 36.66077,-48.83795 64.15925,-60.366372 33.57151,-14.0744656 72.14964,-12.7897337 104.57604,3.482599 13.19016,6.61913 21.95548,12.99225 32.85511,23.888396 18.18367,18.17786 28.5868,36.956746 34.56699,62.397525 2.06663,8.79176 2.2338,10.72694 2.2602,26.16374 0.0225,13.19044 -0.27262,18.07807 -1.41423,23.41706 -5.6269,26.31558 -16.06561,46.25064 -33.81816,64.58338 -18.23255,18.82843 -39.85721,30.75277 -65.74098,36.25112 -7.49199,1.59149 -30.87781,2.78255 -37.11905,1.89052 z m 19.52868,-34.127 c 4.75382,-2.40338 8.63464,-9.01307 8.64673,-14.72681 0.004,-1.82434 0.5369,-2.26103 4.17187,-3.41787 8.92488,-2.84038 18.19236,-11.02006 22.73496,-20.06634 6.94063,-13.82185 4.6585,-32.14226 -5.48163,-44.0052 -1.69203,-1.97951 -13.81684,-11.53968 -26.94401,-21.24483 -23.68713,-17.512318 -26.2287,-19.84938 -26.2287,-24.11815 0,-2.932061 3.28781,-7.184138 6.37788,-8.248439 3.41574,-1.176465 14.45159,-1.305933 18.3773,-0.215603 3.51206,0.975443 6.99508,4.842329 7.00119,7.772795 0.0122,5.812684 3.8585,12.305027 8.80577,14.863357 1.22328,0.63259 4.22076,1.15015 6.66108,1.15015 8.76641,0 14.70487,-5.49113 15.31537,-14.161703 0.3848,-5.465119 -1.45406,-13.770044 -4.28665,-19.359882 -4.19308,-8.274638 -14.2127,-16.656692 -23.42485,-19.59637 -2.69562,-0.860199 -2.91255,-1.176476 -3.41745,-4.982547 -0.63899,-4.816961 -1.88768,-7.42146 -4.94497,-10.314111 -2.94665,-2.787975 -5.83196,-3.821043 -10.672,-3.821043 -4.1454,0 -8.82427,1.883962 -11.19805,4.508925 -2.08034,2.300478 -3.80082,7.0094 -3.80082,10.402785 0,2.997629 -0.0808,3.081183 -4.24817,4.394841 -17.68201,5.573763 -29.56059,24.925171 -26.76444,43.601976 1.15076,7.686449 5.8686,17.260049 10.92057,22.160339 2.10055,2.03748 13.82104,11.0727 26.04553,20.07826 12.2245,9.00557 22.84959,17.34039 23.61133,18.52184 3.26334,5.06145 0.42946,11.95493 -5.60344,13.63052 -4.31602,1.19874 -15.60768,1.01645 -18.76544,-0.30295 -3.50917,-1.46622 -5.07664,-3.98159 -5.99415,-9.619 -0.96173,-5.90905 -3.72415,-10.04688 -8.13181,-12.18059 -8.40322,-4.06793 -19.06847,0.14324 -21.62475,8.53853 -1.75806,5.7738 0.11907,16.39306 4.37101,24.72755 3.85131,7.54918 13.91643,15.61134 22.81012,18.27089 3.2501,0.97191 3.37428,1.12779 3.39108,4.25685 0.0602,11.22464 12.22207,18.59164 22.28954,13.50183 z"
     id="path113" />
  <path
     style="fill:#ff00ff;stroke:none;stroke-width:0.793798"
     d="M 83.373239,508.99863 C 79.7753,506.96082 81.016251,508.94812 50.797709,456.83101 15.342833,395.68293 5.2994473,377.81267 4.7539854,374.90511 c -0.6002813,-3.19978 1.4734377,-8.83618 4.0610037,-11.03787 3.1746979,-2.70127 59.8968929,-35.65663 71.0587759,-41.28485 4.232626,-2.13425 7.139627,-3.07851 9.477435,-3.07851 5.85316,0 8.213448,3.30936 33.68589,47.231 25.24338,43.52667 44.28952,77.00792 46.94951,82.53265 4.35468,9.04451 3.28869,14.41725 -3.82433,19.27544 -3.98706,2.72316 -43.98344,25.96132 -61.34963,35.64454 -13.294291,7.41276 -15.83809,7.98361 -21.439401,4.81112 z"
     id="path115" />
  <path
     style="fill:#ff00ff;stroke-width:0.793798"
     d="m 187.77291,415.3517 c -37.41726,-64.66801 -50.13839,-87.44257 -49.72747,-89.02676 0.77807,-2.99966 10.92165,-15.80868 18.33489,-23.15275 14.36636,-14.23233 32.51735,-23.89893 52.99697,-28.2244 10.47668,-2.21276 27.28814,-2.36833 36.70022,-0.33961 17.57897,3.78904 33.68193,12.02066 45.93159,23.47962 l 5.07382,4.74631 17.75931,0.0697 c 9.76762,0.0383 24.72489,0.31046 33.23838,0.60471 14.31573,0.4948 15.70363,0.67392 18.46697,2.38333 6.40508,3.96219 10.49507,13.65132 8.62726,20.43786 -1.91405,6.95458 -8.40059,13.24516 -14.52163,14.08296 -1.89415,0.25925 -22.35709,0.71513 -45.47317,1.01305 l -42.02926,0.54168 -3.7596,3.7596 c -4.15484,4.15484 -5.10097,7.00447 -4.47806,13.48728 0.46172,4.80524 3.0678,8.79583 7.3461,11.24883 l 3.18883,1.82835 h 42.46822 c 41.93054,0 42.54886,-0.0231 48.83772,-1.82461 3.50322,-1.00354 8.7789,-3.1468 11.72373,-4.7628 2.94482,-1.61599 20.26088,-13.70031 38.48011,-26.85403 40.96057,-29.57227 59.28414,-42.49689 62.89332,-44.3621 6.4414,-3.32888 17.40129,-0.71456 22.63435,5.39908 3.62161,4.23104 4.57948,7.49054 4.23075,14.39655 -0.51724,10.24294 3.4551,6.77468 -63.77673,55.68344 -58.94622,42.88127 -70.96636,50.42429 -90.88992,57.03628 -14.4884,4.80823 -19.07972,5.30028 -56.35969,6.03995 -18.55504,0.36815 -48.0248,0.68997 -65.48837,0.71516 l -31.75194,0.0458 z"
     id="path117" />
  <path
     style="fill:#1b1734;stroke-width:0.793798;fill-opacity:1"
     d="m 282.16591,250.02665 c -34.75885,-7.21302 -62.10573,-25.4887 -81.38609,-54.38964 -21.19459,-31.77035 -26.62589,-70.88138 -14.93191,-107.525382 2.95194,-9.250143 11.42374,-25.862657 17.57525,-34.463656 12.1112,-16.933795 30.26703,-32.017395 49.4604,-41.090983 7.52801,-3.5588375 18.14774,-7.0425944 27.72419,-9.0948064 11.35192,-2.4326905 35.25142,-2.63024687 47.23101,-0.3904177 27.76307,5.190871 52.47504,19.3290071 71.63579,40.9840491 14.69853,16.611933 23.94023,34.813437 29.32037,57.746366 1.19856,5.10891 1.43528,9.45821 1.39345,25.60247 -0.0498,19.20703 -0.0811,19.5617 -2.52525,28.61709 -6.60259,24.46177 -16.44951,41.60806 -33.93909,59.09764 -17.23134,17.23134 -34.3906,27.19223 -57.21305,33.21197 -16.03265,4.22884 -38.72493,4.93673 -54.34507,1.6953 z m 29.94635,-31.29188 c 3.92265,-1.78091 7.93919,-6.92264 8.63324,-11.05174 0.26653,-1.58567 0.65389,-3.50122 0.86079,-4.25677 0.21425,-0.78242 3.27741,-2.7333 7.11628,-4.53226 11.10752,-5.20515 19.25766,-14.67401 22.2464,-25.84594 1.79287,-6.70173 1.39157,-17.05121 -0.92923,-23.96476 -3.77374,-11.24175 -5.63462,-13.1166 -35.26408,-35.52881 -11.30611,-8.55213 -21.47586,-16.641852 -22.59945,-17.977156 -2.36411,-2.809594 -2.63832,-6.215902 -0.7343,-9.121808 2.25705,-3.444696 5.02435,-4.297648 13.93262,-4.294418 11.58579,0.004 14.07534,1.660254 15.74701,10.474957 1.67534,8.834015 6.73144,13.328255 14.99993,13.333055 9.99558,0.006 15.25431,-4.74626 15.79251,-14.270944 0.8995,-15.918966 -7.60323,-29.55638 -23.26538,-37.315035 -5.42876,-2.689277 -6.87017,-3.773947 -7.24653,-5.453031 -1.42186,-6.343536 -2.12087,-8.192314 -3.89434,-10.299968 -2.88102,-3.423893 -6.6239,-4.895647 -12.41219,-4.88065 -6.63263,0.01719 -10.69707,2.211236 -13.21635,7.134395 -1.04369,2.039568 -1.69786,4.504229 -1.52663,5.751772 0.16479,1.20062 0.0305,2.182946 -0.2985,2.182946 -0.32896,0 -0.71361,0.558594 -0.85477,1.241321 -0.14116,0.682727 -2.69674,2.269042 -5.67907,3.525145 -15.48004,6.51992 -25.16438,21.1409 -25.1294,37.939271 0.0186,8.931758 4.5713,20.396578 10.53653,26.533528 1.84003,1.89301 12.0483,9.99908 22.68501,18.01349 10.63673,8.0144 21.44231,16.32162 24.01241,18.46048 4.35549,3.62467 4.6729,4.11751 4.6729,7.25536 0,6.98534 -3.72491,9.27637 -15.08217,9.27637 -11.69767,0 -13.67226,-1.39733 -15.76792,-11.15817 -1.10267,-5.13585 -4.65168,-9.93216 -8.55651,-11.5637 -3.91431,-1.63551 -10.31717,-1.37193 -14.37345,0.59168 -6.93674,3.35802 -9.30486,10.51798 -7.03219,21.26172 3.0379,14.3613 11.35342,24.31587 24.92433,29.83712 4.67577,1.9023 5.07487,2.46255 6.09462,8.55529 0.99731,5.9587 8.38238,11.6567 15.10802,11.6567 1.74636,0 4.67129,-0.67925 6.49986,-1.50944 z"
     id="path119" />
  <path
     style="fill:#1b1734;fill-opacity:1;stroke-width:0.793798"
     d="m 194.4214,426.03118 c -53.82288,-93.64818 -55.94761,-97.5182 -55.19224,-100.52786 0.71655,-2.85497 11.8366,-16.41927 19.31381,-23.55911 14.00253,-13.37072 33.71223,-23.41164 53.06462,-27.03324 8.48729,-1.58831 27.97956,-1.34727 35.66063,0.44098 16.69722,3.88732 30.60481,11.01423 43.58551,22.33532 l 6.21865,5.42358 32.25141,0.55723 c 36.17973,0.62511 35.89475,0.58067 40.8508,6.3707 2.80606,3.27825 5.31218,9.44674 5.27464,12.98281 -0.0279,2.62278 -3.0288,8.55751 -5.78252,11.43557 -5.66398,5.91975 -3.54009,5.65701 -52.74862,6.5254 l -44.2062,0.78011 -2.67047,2.56363 c -5.62318,5.39821 -7.21732,12.65585 -4.22612,19.2402 1.60909,3.54199 6.3039,8.06003 9.10625,8.76337 1.00417,0.25203 21.26925,0.32921 45.03351,0.17151 39.11099,-0.25955 43.62168,-0.4232 47.57362,-1.726 9.84271,-3.24474 12.62088,-5.05013 59.93179,-38.94642 52.38731,-37.53334 53.89839,-38.52043 58.96841,-38.52043 7.26922,0 15.66663,5.21512 18.53357,11.51007 1.85075,4.06371 1.95347,12.2589 0.19997,15.95414 -2.13247,4.49384 -9.16415,10.03216 -55.4756,43.69386 -70.71501,51.39954 -80.98167,57.68878 -104.78139,64.18787 -10.51076,2.87022 -21.26573,3.54873 -63.10698,3.98126 -20.73798,0.21438 -47.88589,0.54842 -60.32868,0.74231 l -22.62326,0.35253 z"
     id="path944" />
  <path
     style="fill:#1b1734;fill-opacity:1;stroke-width:0.793798"
     d="m 83.286238,508.21028 c -1.473321,-0.99287 -4.413275,-4.60849 -6.533229,-8.03469 C 66.458197,483.53742 12.819829,390.33586 7.8458795,380.44317 c -3.1010094,-6.1676 -3.1857467,-6.53747 -2.2574044,-9.85318 0.5305019,-1.89477 1.7529723,-4.29575 2.7166008,-5.33553 2.5828191,-2.7869 56.1601511,-34.28267 71.0730591,-41.78073 8.155766,-4.10064 11.775606,-4.35969 15.19587,-1.08747 4.765497,4.55924 16.058285,23.28846 52.922685,87.77294 22.80467,39.89071 24.26899,42.78172 24.32029,48.0153 0.0358,3.6563 -0.27132,4.44356 -2.71976,6.97109 -2.73804,2.8265 -15.53716,10.64399 -46.85226,28.6166 -30.251062,17.36192 -33.078771,18.41059 -38.958722,14.44809 z"
     id="path946" />
</svg>
