<?xml version="1.0" encoding="UTF-8" standalone="no"?>
<svg
   xmlns:dc="http://purl.org/dc/elements/1.1/"
   xmlns:cc="http://creativecommons.org/ns#"
   xmlns:rdf="http://www.w3.org/1999/02/22-rdf-syntax-ns#"
   xmlns:svg="http://www.w3.org/2000/svg"
   xmlns="http://www.w3.org/2000/svg"
   xmlns:sodipodi="http://sodipodi.sourceforge.net/DTD/sodipodi-0.dtd"
   xmlns:inkscape="http://www.inkscape.org/namespaces/inkscape"
   height="512pt"
   viewBox="0 -24 512 511"
   width="512pt"
   version="1.1"
   id="svg2681"
   sodipodi:docname="stock.svg"
   inkscape:version="1.0.2 (1.0.2+r75+1)">
  <metadata
     id="metadata2687">
    <rdf:RDF>
      <cc:Work
         rdf:about="">
        <dc:format>image/svg+xml</dc:format>
        <dc:type
           rdf:resource="http://purl.org/dc/dcmitype/StillImage" />
      </cc:Work>
    </rdf:RDF>
  </metadata>
  <defs
     id="defs2685" />
  <sodipodi:namedview
     pagecolor="#ffffff"
     bordercolor="#666666"
     borderopacity="1"
     objecttolerance="10"
     gridtolerance="10"
     guidetolerance="10"
     inkscape:pageopacity="0"
     inkscape:pageshadow="2"
     inkscape:window-width="1600"
     inkscape:window-height="863"
     id="namedview2683"
     showgrid="false"
     inkscape:zoom="0.99902344"
     inkscape:cx="341.33333"
     inkscape:cy="341.33333"
     inkscape:window-x="0"
     inkscape:window-y="0"
     inkscape:window-maximized="1"
     inkscape:current-layer="svg2681" />
  <path
     d="m285.539062 187.578125h39.382813c8.15625 0 14.769531-6.613281 14.769531-14.769531s-6.613281-14.769532-14.769531-14.769532h-39.382813c-8.15625 0-14.769531 6.613282-14.769531 14.769532s6.613281 14.769531 14.769531 14.769531zm0 0"
     id="path2673" />
  <path
     d="m497.230469 217.117188h-108.308594v-201.847657c0-8.15625-6.613281-14.769531-14.769531-14.769531h-236.304688c-8.15625 0-14.769531 6.613281-14.769531 14.769531v201.847657h-108.308594c-8.15625 0-14.769531 6.609374-14.769531 14.765624v216.617188c0 8.15625 6.613281 14.769531 14.769531 14.769531h482.460938c8.15625 0 14.769531-6.613281 14.769531-14.769531v-216.617188c0-8.15625-6.613281-14.765624-14.769531-14.765624zm-147.691407 29.535156h49.230469v68.925781h-49.230469zm-68.921874-216.613282v68.921876h-49.234376v-68.921876zm-128 0h49.230468v83.691407c0 8.15625 6.609375 14.769531 14.769532 14.769531h78.765624c8.160157 0 14.769532-6.613281 14.769532-14.769531v-83.691407h49.230468v187.078126h-206.765624zm4.921874 216.613282v68.925781h-49.230468v-68.925781zm-128 0h49.230469v83.695312c0 8.15625 6.613281 14.769532 14.769531 14.769532h78.769532c8.15625 0 14.769531-6.613282 14.769531-14.769532v-83.695312h54.152344v187.078125h-211.691407zm452.921876 187.078125h-211.691407v-187.078125h49.230469v83.695312c0 8.15625 6.613281 14.769532 14.769531 14.769532h78.769531c8.15625 0 14.769532-6.613282 14.769532-14.769532v-83.695312h54.152344zm0 0"
     id="path2675" />
  <path
     d="m408.617188 374.652344c-8.160157 0-14.769532 6.613281-14.769532 14.769531s6.609375 14.769531 14.769532 14.769531h39.382812c8.15625 0 14.769531-6.613281 14.769531-14.769531s-6.613281-14.769531-14.769531-14.769531zm0 0"
     id="path2677" />
  <path
     d="m201.847656 374.652344h-39.386718c-8.15625 0-14.769532 6.613281-14.769532 14.769531s6.613282 14.769531 14.769532 14.769531h39.386718c8.15625 0 14.769532-6.613281 14.769532-14.769531s-6.613282-14.769531-14.769532-14.769531zm0 0"
     id="path2679" />
  <path
     style="fill:#1b1734;stroke-width:1.00098"
     d="M 13.158009,648.56582 C 8.6893707,646.77147 4.9532899,643.44822 2.7300267,639.2901 L 0.50048876,635.12023 V 486.97556 c 0,-119.34089 0.25413127,-148.86166 1.30705714,-151.8323 1.6531898,-4.66419 7.9124833,-10.37425 12.8860241,-11.75533 2.534006,-0.70365 28.390725,-1.06389 76.628259,-1.06758 l 72.803751,-0.006 0.26761,-136.88367 0.26761,-136.88368 2.27197,-4.253039 c 1.24959,-2.33917 4.14456,-5.49225 6.43326,-7.006842 l 4.16128,-2.753805 h 163.80602 163.80603 l 4.16127,2.753805 c 2.28871,1.514592 5.18368,4.667672 6.43327,7.006842 l 2.27197,4.253039 0.26761,136.88368 0.26761,136.88367 72.80375,0.006 c 48.23753,0.004 74.09425,0.36393 76.62826,1.06758 4.97353,1.38108 11.23283,7.09114 12.88602,11.75533 1.05293,2.97064 1.30706,32.49141 1.30706,151.8323 v 148.14468 l -2.27197,4.25303 c -1.24959,2.33917 -4.14454,5.49225 -6.43322,7.00684 l -4.16126,2.75339 -326.89229,0.18919 C 138.88556,649.4409 14.625557,649.1551 13.158009,648.56582 Z M 322.31476,486.47507 V 361.35288 h -36.50482 -36.50482 l -0.2811,58.30694 -0.28111,58.30694 -2.73817,4.65788 c -2.03289,3.45811 -4.08168,5.32738 -7.95411,7.25709 l -5.21594,2.59921 h -55.38986 c -60.43979,0 -59.46933,0.0859 -65.67496,-5.80872 -6.43959,-6.1168 -6.13848,-2.99091 -6.45508,-67.0124 l -0.28834,-58.30694 H 72.032287 39.038123 V 486.47507 611.59726 H 180.67644 322.31476 Z m 321.31378,0 V 361.35288 h -36.53568 -36.53568 v 57.89927 57.89925 l -2.32904,4.4116 c -1.28098,2.42637 -4.2472,5.7629 -6.59161,7.41452 l -4.26255,3.00293 -55.99343,0.28238 c -37.1241,0.18722 -57.31932,-0.0747 -59.92789,-0.77706 -4.97944,-1.34082 -9.56409,-5.17553 -12.0772,-10.10162 -1.87685,-3.67894 -1.95806,-6.2476 -1.95806,-61.93469 V 361.35288 H 393.88465 360.35191 V 486.47507 611.59726 H 501.99022 643.62854 Z M 210.20528,407.39785 v -46.04497 h -33.03226 -33.03226 v 46.04497 46.04497 h 33.03226 33.03226 z m 322.31476,0 v -46.04497 h -33.53275 -33.53274 v 46.04497 46.04497 h 33.53274 33.53275 z M 479.46823,197.19257 V 72.070381 h -33.03226 -33.03226 l -0.006,56.304989 c -0.004,37.59142 -0.36908,57.63572 -1.09927,60.30889 -1.47758,5.40926 -5.20729,10.11517 -9.92401,12.52146 -3.76454,1.92075 -5.96931,1.99272 -61.0411,1.99272 -55.07179,0 -57.27655,-0.072 -61.04152,-1.99272 -4.71671,-2.40629 -8.44643,-7.1122 -9.924,-12.52146 -0.73019,-2.67317 -1.09555,-22.71747 -1.09927,-60.30889 l -0.006,-56.304989 H 236.23069 203.19844 V 197.19257 322.31476 h 138.13489 138.1349 z M 374.36559,118.61584 V 72.070381 h -33.03226 -33.03225 v 46.545459 46.54545 h 33.03225 33.03226 z"
     id="path2689"
     transform="matrix(0.74999998,0,0,0.74999998,0,-24.5)" />
  <path
     style="fill:#1b1734;stroke-width:1.00098"
     d="m 372.27083,279.94661 c -2.42638,-1.28097 -5.7554,-4.23695 -7.39784,-6.56884 -2.46855,-3.50478 -2.98625,-5.22816 -2.98625,-9.94103 0,-6.73174 2.1393,-10.99881 7.81538,-15.58868 l 3.84483,-3.10906 30.68889,-0.30357 c 16.87889,-0.16697 32.16245,-0.0321 33.96347,0.29961 6.87724,1.26682 14.19856,10.8175 14.19856,18.52205 0,4.2919 -2.8703,10.75231 -6.09376,13.71566 -5.44049,5.00152 -7.69787,5.30291 -39.71765,5.30291 -29.37262,0 -29.98244,-0.0414 -34.31563,-2.32905 z"
     id="path2691"
     transform="matrix(0.74999998,0,0,0.74999998,0,-24.5)" />
  <path
     style="fill:#1b1734;stroke-width:1.00098"
     d="m 213.20821,570.66126 c -4.84967,-1.01659 -7.23131,-2.45881 -10.83135,-6.55904 -3.58148,-4.07907 -5.60758,-10.4939 -4.7531,-15.0487 0.96298,-5.13313 5.90999,-11.97699 10.19432,-14.10317 3.59337,-1.78328 6.29553,-1.92982 35.58412,-1.92982 h 31.69545 l 4.33974,3.01632 c 11.87624,8.25454 11.54147,24.45583 -0.66159,32.01789 l -4.8459,3.00293 -28.60913,0.16899 c -15.73503,0.0929 -30.18568,-0.16149 -32.11256,-0.5654 z"
     id="path2693"
     transform="matrix(0.74999998,0,0,0.74999998,0,-24.5)" />
  <path
     style="fill:#1b1734;stroke-width:1.00098"
     d="m 543.0303,571.06621 c -0.55053,-0.18365 -2.25104,-0.60996 -3.7789,-0.94736 -4.10824,-0.90723 -10.38174,-7.07733 -12.2982,-12.09553 -3.2569,-8.52806 0.90363,-18.96165 9.20418,-23.08183 3.56471,-1.76943 6.31778,-1.92096 34.90029,-1.92096 29.5262,0 31.22439,0.10136 35.03422,2.0911 5.21296,2.72255 9.33509,8.67727 10.13833,14.64559 1.22493,9.10156 -5.7976,18.65433 -15.34209,20.86991 -3.49102,0.81038 -55.5602,1.20552 -57.85783,0.43908 z"
     id="path2695"
     transform="matrix(0.74999998,0,0,0.74999998,0,-24.5)" />
</svg>
