<?xml version="1.0" encoding="UTF-8" standalone="no"?>
<svg
   xmlns:dc="http://purl.org/dc/elements/1.1/"
   xmlns:cc="http://creativecommons.org/ns#"
   xmlns:rdf="http://www.w3.org/1999/02/22-rdf-syntax-ns#"
   xmlns:svg="http://www.w3.org/2000/svg"
   xmlns="http://www.w3.org/2000/svg"
   xmlns:sodipodi="http://sodipodi.sourceforge.net/DTD/sodipodi-0.dtd"
   xmlns:inkscape="http://www.inkscape.org/namespaces/inkscape"
   height="511pt"
   viewBox="0 -15 511.99821 511"
   width="511pt"
   id="svg3407"
   version="1.1"
   inkscape:version="0.91 r13725"
   sodipodi:docname="vegetables.svg">
  <metadata
     id="metadata3415">
    <rdf:RDF>
      <cc:Work
         rdf:about="">
        <dc:format>image/svg+xml</dc:format>
        <dc:type
           rdf:resource="http://purl.org/dc/dcmitype/StillImage" />
      </cc:Work>
    </rdf:RDF>
  </metadata>
  <defs
     id="defs3413" />
  <sodipodi:namedview
     pagecolor="#ffffff"
     bordercolor="#666666"
     borderopacity="1"
     objecttolerance="10"
     gridtolerance="10"
     guidetolerance="10"
     inkscape:pageopacity="0"
     inkscape:pageshadow="2"
     inkscape:window-width="1567"
     inkscape:window-height="876"
     id="namedview3411"
     showgrid="false"
     inkscape:zoom="0.57847358"
     inkscape:cx="368.23493"
     inkscape:cy="337.36476"
     inkscape:window-x="33"
     inkscape:window-y="24"
     inkscape:window-maximized="1"
     inkscape:current-layer="svg3407" />
  <path
     d="m 398.45624,329.39373 -3.48827,-0.80191 c 33.80648,-27.76543 41.01053,-89.41736 9.16834,-121.54061 -12.25302,-12.3549 -19.57205,-31.90745 -19.57205,-52.30848 0,-29.57036 -19.40325,-53.63276 -43.2586,-53.63276 -23.84797,0 -43.25856,24.0624 -43.25856,53.63276 0,6.71942 -0.79255,13.34074 -2.29944,19.64326 -22.2237,-25.71526 -57.51502,-28.66298 -81.11351,-12.22492 l 0,-60.31785 c 0,-2.614191 -2.11598,-4.735476 -4.72116,-4.735476 -2.60767,0 -4.72362,2.121285 -4.72362,4.735476 l 0,18.59367 C 191.08214,94.922714 165.41173,88.097832 136.66399,93.900084 c -2.90362,0.588562 -4.5597,3.688329 -3.43935,6.439856 0.2642,0.64496 6.62676,16.0187 18.91891,29.47962 14.54756,15.93288 32.60292,23.84414 53.04582,18.16941 l 0,14.1721 c -27.74233,-19.32447 -74.19321,-12.38679 -93.27601,31.67692 -1.03719,2.3984 0.0636,5.18181 2.45598,6.22405 2.39483,1.04225 5.17127,-0.0564 6.2109,-2.45725 17.46341,-40.31653 59.22248,-43.57324 81.37036,-26.08557 4.61109,3.8894 11.33571,3.86978 15.92232,0 25.21298,-19.90813 68.83117,-11.244 83.77744,32.31697 8.03575,23.46157 6.42859,47.99726 -7.51961,73.37658 -5.54798,9.94915 -10.10769,18.22092 -13.87484,25.10954 -29.25167,-6.31724 -33.42735,-8.62734 -43.38337,-8.41154 -2.60767,0.0515 -4.67958,2.20957 -4.6233,4.82376 0.0515,2.62157 2.19914,4.70359 4.81898,4.63983 1.71238,-0.0368 3.65711,0.0515 5.70947,0.30408 l -2.83272,25.50438 c -0.28863,2.59704 1.5778,4.93902 4.17077,5.2284 2.60276,0.28938 4.9291,-1.59156 5.21778,-4.18124 l 2.73971,-24.65586 c 18.86754,4.31857 31.14747,7.13386 45.77819,10.48867 l -1.35031,12.16118 c -0.28864,2.59948 1.57778,4.94146 4.17076,5.23083 2.60277,0.28939 4.92909,-1.59156 5.21775,-4.18369 l 1.23042,-11.08704 c 2.91831,0.66949 69.95885,16.02115 70.79789,16.21489 l -3.64728,32.82953 c -0.28862,2.59947 1.58027,4.94146 4.17077,5.23085 2.60523,0.28937 4.92912,-1.59158 5.21777,-4.18125 l 3.52984,-31.7554 9.16593,2.10166 c 11.36256,2.59949 18.86754,13.18135 17.57105,24.7981 -1.28428,11.55299 -11.00302,20.28578 -22.59554,20.3103 l -48.34667,0.0932 1.71723,-15.43995 c 0.28862,-2.5995 -1.57782,-4.94148 -4.17077,-5.23086 -2.59542,-0.28693 -4.92911,1.58177 -5.21775,4.18124 l -1.83468,16.50919 -46.33587,0.0883 1.61203,-14.51541 c 0.28865,-2.59704 -1.57779,-4.93903 -4.17075,-5.2284 -2.58566,-0.29183 -4.92909,1.58176 -5.21777,4.18125 -0.40117,3.6172 -1.69033,15.19716 -1.72948,15.58219 l -22.18454,0.0417 2.80824,-25.2665 c 0.28862,-2.59702 -1.57783,-4.93902 -4.17077,-5.22839 -2.59541,-0.29183 -4.92912,1.58177 -5.21776,4.18125 l -2.92808,26.33326 c -0.0465,0 -0.0808,0 -0.10773,0 -0.003,0 -0.008,0 -0.009,0 -0.008,0 -0.0147,0 -0.022,0 0,0 -0.003,0 -0.005,0 -0.009,0 -0.0147,0 -0.0245,0 -0.3058,0 -1.78821,0.003 -7.82297,0.0147 -18.53973,0 -34.43272,-12.67861 -38.95084,-30.19816 -4.63554,-17.89475 3.48095,-37.87644 21.75161,-46.5798 2.35568,-1.12318 3.36107,-3.94584 2.24071,-6.30743 -1.12035,-2.36161 -3.93593,-3.37198 -6.2916,-2.24635 -9.20748,4.37987 -16.63658,11.28813 -21.58039,19.734 -9.5595,-4.77958 -20.49403,-12.29846 -26.32577,-23.3708 -7.53666,-14.35356 -29.27359,-8.9633 -29.34698,7.24178 l -14.79964,-26.97335 c -10.1444,-18.4784 -13.86017,-39.21787 -9.44479,-60.62193 0.52838,-2.56271 -1.11547,-5.06899 -3.67173,-5.59869 -2.55629,-0.52971 -5.0514,1.11826 -5.5798,3.68097 -4.73583,22.96865 -1.13992,46.04274 10.41593,67.10591 l 20.17869,36.768 -14.78727,-1.65288 c -8.55681,-0.95396 -16.255,5.21122 -17.20657,13.79443 -0.94912,8.55623 5.2153,16.29581 13.75497,17.24978 l 24.48401,2.73191 c -6.07146,5.4491 -10.95896,10.38814 -10.34496,18.17677 1.06164,13.76746 18.33914,19.50348 27.36807,8.93389 7.43155,-8.71809 19.04366,-14.10343 30.81476,-17.00947 6.39925,20.05283 25.19097,34.61239 47.32173,34.61239 7.19671,-0.0147 144.70003,-0.27956 153.39139,-0.29673 17.85477,-0.0344 32.17483,-14.53994 32.17483,-32.33906 -0.003,-15.15056 -10.30581,-28.09405 -25.0613,-31.47092 z M 144.54811,102.15958 c 31.40672,-4.298967 51.21116,10.70693 57.82572,36.78269 -25.5873,6.90581 -45.70971,-13.37262 -57.82572,-36.78269 z m 238.1008,223.60958 -92.78191,-21.252 c 2.68104,-4.92431 5.65562,-10.35871 8.96777,-16.33752 8.74763,15.10643 25.05644,25.28367 43.69157,25.28367 23.9752,0 44.78989,-17.08302 49.48662,-40.62062 0.51124,-2.5627 -1.15216,-5.05673 -3.70842,-5.56682 -2.56363,-0.51255 -5.04408,1.14769 -5.55536,3.7104 -3.81604,19.12336 -20.73153,33.00853 -40.22284,33.00853 -17.2555,0 -32.055,-10.7388 -38.10688,-25.89919 7.84738,-14.97401 11.60718,-30.79653 11.48001,-46.49153 23.69874,-20.31522 60.23764,-7.50171 66.71763,22.51252 0.55529,2.55778 3.06018,4.18124 5.61889,3.62456 2.54898,-0.55423 4.16834,-3.07524 3.61308,-5.63059 -2.39728,-11.11892 -8.59594,-21.22749 -17.43163,-28.4619 -16.78828,-13.73557 -40.78549,-15.28544 -59.26653,-3.26897 -1.57288,-12.44565 -5.69961,-25.41609 -12.29214,-36.22112 3.0284,-9.15459 4.63556,-19.11846 4.63556,-29.41585 0,-21.84793 13.57394,-44.16181 33.81133,-44.16181 20.02216,0 33.81137,22.01469 33.81137,44.16181 0,23.18446 8.1361,44.68169 22.31913,58.98867 24.59897,24.7981 22.21886,70.83839 0.85129,97.95886 -4.64289,5.89053 -9.92669,10.62599 -15.63854,14.0789 z m -194.03007,23.79509 c -13.45656,3.28123 -27.0721,9.73091 -35.98361,20.17789 -2.19913,2.57741 -6.07881,2.87905 -8.64731,0.67685 -2.57585,-2.21448 -2.87673,-6.08917 -0.67269,-8.66414 4.11204,-4.81885 9.03869,-9.01235 14.28089,-12.38679 3.71824,-2.41065 2.37037,-8.19082 -2.04013,-8.67885 -4.09005,-0.45858 -33.10931,-3.70302 -36.20374,-4.0488 -3.35618,-0.37277 -5.78771,-3.42102 -5.41589,-6.78564 0.37182,-3.32783 3.34395,-5.80224 6.77598,-5.42949 0.0196,0.003 0.0391,0.003 0.0563,0.005 -0.009,0 -0.0196,-0.003 -0.0269,-0.003 0.022,0.003 0.0587,0.008 0.11253,0.012 -0.003,0 -0.005,0 -0.009,0 0.0513,0.005 0.088,0.008 0.11013,0.012 -0.0171,-0.003 -0.0416,-0.005 -0.0685,-0.009 0.96625,0.10787 6.60962,0.73816 32.71791,3.65645 1.50197,-0.0956 6.07881,1.85397 8.0798,-2.26106 0.87574,-1.80492 0.52348,-3.95808 -0.87575,-5.39025 -4.58417,-4.68642 -8.35621,-9.81182 -11.20848,-15.22904 -1.58024,-2.99923 -0.42808,-6.72434 2.55628,-8.30856 l 0.007,0 c 3.0186,-1.59156 6.69769,-0.4218 8.28038,2.57006 6.95943,13.22059 19.72372,22.01468 30.70714,27.48832 -2.50735,7.08973 -3.44427,14.96665 -2.53182,22.59589 z m 0,0"
     id="path3409"
     inkscape:connector-curvature="0" />
</svg>
